<?xml version="1.0" encoding="utf-8"?>
<!-- Generator: Adobe Illustrator 23.0.3, SVG Export Plug-In . SVG Version: 6.00 Build 0)  -->
<svg version="1.1" id="Layer_1" xmlns="http://www.w3.org/2000/svg" xmlns:xlink="http://www.w3.org/1999/xlink" x="0px" y="0px"
	 viewBox="0 0 30 30" style="enable-background:new 0 0 30 30;" xml:space="preserve">
<style type="text/css">
	.st0{fill:#4F4F4F;}
</style>
<path class="st0" d="M7,4C6.7,4,6.5,4.1,6.3,4.3l-2,2c-0.4,0.4-0.4,1,0,1.4l7.3,7.3l-7.3,7.3c-0.4,0.4-0.4,1,0,1.4l2,2
	c0.4,0.4,1,0.4,1.4,0l7.3-7.3l7.3,7.3c0.4,0.4,1,0.4,1.4,0l2-2c0.4-0.4,0.4-1,0-1.4L18.4,15l7.3-7.3c0.4-0.4,0.4-1,0-1.4l-2-2
	c-0.4-0.4-1-0.4-1.4,0L15,11.6L7.7,4.3C7.5,4.1,7.3,4,7,4z"/>
</svg>
