<?xml version="1.0" encoding="utf-8"?>
<!-- Generator: Adobe Illustrator 25.3.1, SVG Export Plug-In . SVG Version: 6.00 Build 0)  -->
<svg version="1.1" id="Camada_1" xmlns="http://www.w3.org/2000/svg" xmlns:xlink="http://www.w3.org/1999/xlink" x="0px" y="0px"
	 viewBox="0 0 595.3 179.1" style="enable-background:new 0 0 595.3 179.1;" xml:space="preserve">
<style type="text/css">
	.st0{fill:#fff;}
</style>
<g>
	<path class="st0" d="M536.1,16.6v19.8h-60.3c-2.8,0-5.2,1-7.1,2.9c-1.9,1.9-2.9,4.3-2.9,7.1c0,2.8,1,5.2,2.9,7.2c1.9,2,4.3,3,7.1,3
		h40c4.1,0,8,0.8,11.7,2.3c3.6,1.6,6.8,3.7,9.6,6.3c2.7,2.7,4.9,5.8,6.4,9.5c1.6,3.6,2.3,7.5,2.3,11.7c0,4.1-0.8,8-2.3,11.7
		c-1.6,3.6-3.7,6.8-6.4,9.6c-2.7,2.7-5.9,4.9-9.6,6.4c-3.6,1.6-7.5,2.3-11.7,2.3h-60V96.6h60c3,0,5.4-1,7.3-2.9
		c1.9-1.9,2.9-4.4,2.9-7.3c0-2.8-1-5.2-2.9-7.1c-1.9-1.9-4.4-2.9-7.3-2.9h-40c-4.1,0-8-0.8-11.7-2.3c-3.6-1.6-6.8-3.7-9.5-6.4
		c-2.7-2.7-4.8-5.9-6.3-9.6c-1.6-3.6-2.3-7.5-2.3-11.7c0-4.1,0.8-8,2.3-11.7c1.6-3.6,3.7-6.8,6.3-9.5c2.7-2.7,5.8-4.8,9.5-6.3
		c3.6-1.6,7.5-2.3,11.7-2.3H536.1z"/>
	<rect x="420.3" y="16.6" class="st0" width="19.6" height="99.8"/>
	<path class="st0" d="M397.8,36.8c-4.1,0-8.1,0.8-11.8,2.3c-3.7,1.6-6.9,3.7-9.7,6.4c-2.7,2.7-4.9,5.9-6.4,9.6
		c-1.6,3.6-2.3,7.5-2.3,11.7c0,4.1,0.8,8.1,2.3,11.8c1.6,3.7,3.7,6.9,6.4,9.7c2.7,2.7,6,4.9,9.7,6.4c3.7,1.6,7.6,2.3,11.8,2.3h9.8
		v19.8h-9.8c-8.3,0-15.9-1.8-22.8-5.5c-6.9-3.6-12.6-8.6-17.2-14.8c-4.6,6.2-10.4,11.2-17.3,14.8c-7,3.6-14.5,5.5-22.7,5.5h-10V97
		h10c4.1,0,8-0.8,11.7-2.3c3.6-1.6,6.8-3.7,9.6-6.4c2.7-2.7,4.9-6,6.4-9.7c1.6-3.7,2.3-7.6,2.3-11.8c0-4.2-0.8-8-2.3-11.7
		c-1.6-3.6-3.7-6.8-6.4-9.6c-2.7-2.7-5.9-4.9-9.6-6.4c-3.6-1.6-7.5-2.3-11.7-2.3h-10V17h10c8.2,0,15.7,1.8,22.7,5.5
		c7,3.6,12.7,8.6,17.3,14.8c4.6-6.2,10.3-11.2,17.2-14.8c6.9-3.6,14.5-5.5,22.8-5.5h9.8v19.8H397.8z"/>
	<path class="st0" d="M196.8,16.6v19.8h-10c-4.2,0-8,0.8-11.7,2.3c-3.6,1.6-6.8,3.7-9.6,6.4c-2.7,2.7-4.9,5.9-6.4,9.6
		c-1.6,3.6-2.3,7.5-2.3,11.7v50h-20v-50c0-7,1.3-13.5,3.9-19.5c2.6-6,6.2-11.3,10.8-15.8c4.6-4.5,9.9-8.1,16-10.7
		c6.1-2.6,12.5-3.9,19.3-3.9H196.8z"/>
	<path class="st0" d="M291.1,46.9c-2.6-6-6.2-11.3-10.7-15.8c-4.5-4.5-9.8-8.1-15.8-10.7c-6-2.6-12.5-3.9-19.5-3.9
		c-6.8,0-13.3,1.3-19.3,3.9c-6.1,2.6-11.4,6.2-16,10.7c-4.6,4.5-8.2,9.8-10.8,15.8c-2.6,6-3.9,12.5-3.9,19.5
		c0,6.8,1.3,13.3,3.9,19.3c2.6,6.1,6.2,11.4,10.8,16c4.6,4.6,9.9,8.2,16,10.8c6.1,2.6,12.5,3.9,19.3,3.9H295v-50
		C295,59.4,293.7,52.9,291.1,46.9z M275.2,96.6h-30c-4.1,0-8.1-0.8-11.8-2.3c-3.7-1.6-6.9-3.7-9.7-6.4c-2.7-2.7-4.9-6-6.4-9.7
		c-1.6-3.7-2.3-7.6-2.3-11.8c0-4.1,0.8-8,2.3-11.7c1.6-3.6,3.7-6.8,6.4-9.6c2.7-2.7,6-4.9,9.7-6.4c3.7-1.6,7.6-2.3,11.8-2.3
		c4.2,0,8,0.8,11.7,2.3c3.6,1.6,6.8,3.7,9.6,6.4c2.7,2.7,4.9,5.9,6.4,9.6c1.6,3.6,2.3,7.5,2.3,11.7V96.6z"/>
	<path class="st0" d="M122.8,47.4c-2.6-6-6.2-11.3-10.8-15.8c-4.6-4.5-9.9-8.1-15.9-10.7c-6-2.6-12.5-3.9-19.5-3.9
		c-6.8,0-13.3,1.3-19.3,3.9c-6.1,2.6-11.4,6.2-15.9,10.7c-4.5,4.5-8.1,9.8-10.7,15.8c-2.6,6-3.9,12.5-3.9,19.5v83.2h19.8v-33.2h30
		c7,0,13.4-1.3,19.5-3.9c6-2.6,11.3-6.2,15.9-10.8c4.6-4.6,8.2-9.9,10.8-16c2.6-6.1,3.9-12.5,3.9-19.3
		C126.7,59.8,125.4,53.4,122.8,47.4z M104.5,78.6c-1.6,3.7-3.7,6.9-6.4,9.7c-2.7,2.7-6,4.9-9.7,6.5c-3.7,1.6-7.6,2.3-11.8,2.3h-30
		V66.8c0-4.1,0.8-8,2.3-11.7c1.6-3.6,3.7-6.8,6.4-9.6c2.7-2.7,5.9-4.9,9.6-6.4c3.6-1.6,7.5-2.3,11.7-2.3c4.1,0,8.1,0.8,11.8,2.3
		c3.7,1.6,6.9,3.7,9.7,6.4c2.7,2.7,4.9,5.9,6.4,9.6c1.6,3.6,2.3,7.5,2.3,11.7C106.9,71,106.1,74.9,104.5,78.6z"/>
	<g>
		<path class="st0" d="M285.2,157c0,1.9,0.4,3.3,1.2,4.1s1.9,1.2,3.3,1.2c1.2,0,2.2-0.3,2.9-0.9c0.7-0.6,1-1.4,1-2.4v-0.1h2.2v0.2
			c0,1.6-0.6,2.9-1.7,3.8c-1.1,1-2.6,1.5-4.6,1.5c-2,0-3.6-0.6-4.8-1.8c-1.2-1.2-1.8-3-1.8-5.6v-3c0-2.5,0.6-4.3,1.8-5.5
			c1.2-1.2,2.8-1.8,4.7-1.8c2,0,3.5,0.6,4.7,1.8c1.2,1.2,1.8,3,1.8,5.5v2h-10.7V157z M285.2,153.9v0.4h8.4v-0.6c0-1.8-0.4-3-1.1-3.7
			c-0.7-0.7-1.8-1.1-3.1-1.1c-1.3,0-2.3,0.4-3.1,1.1S285.2,152,285.2,153.9z"/>
		<path class="st0" d="M300.4,159.6v-18.8h2.3v18.7c0,0.9,0.2,1.5,0.5,1.9s0.9,0.6,1.7,0.6h1.4v2.1h-1.6c-1.4,0-2.4-0.4-3.1-1.1
			C300.8,162.1,300.4,161,300.4,159.6z"/>
		<path class="st0" d="M311.4,157c0,1.9,0.4,3.3,1.2,4.1c0.8,0.8,1.9,1.2,3.3,1.2c1.2,0,2.2-0.3,2.9-0.9s1-1.4,1-2.4v-0.1h2.2v0.2
			c0,1.6-0.6,2.9-1.7,3.8c-1.1,1-2.7,1.5-4.6,1.5c-2,0-3.6-0.6-4.8-1.8c-1.2-1.2-1.8-3-1.8-5.6v-3c0-2.5,0.6-4.3,1.8-5.5
			c1.2-1.2,2.8-1.8,4.7-1.8c2,0,3.5,0.6,4.7,1.8c1.2,1.2,1.8,3,1.8,5.5v2h-10.7V157z M311.4,153.9v0.4h8.4v-0.6c0-1.8-0.4-3-1.1-3.7
			c-0.7-0.7-1.8-1.1-3.1-1.1c-1.3,0-2.3,0.4-3.1,1.1C311.8,150.7,311.4,152,311.4,153.9z"/>
		<path class="st0" d="M330.2,159.7c0,1.6,0.7,2.3,2.2,2.3h1.3v2H332c-1.3,0-2.3-0.4-3.1-1.1c-0.7-0.8-1.1-1.8-1.1-3.1v-11h-2.7
			v-1.8h2.7V143l2.3-1.1v5h3.8v1.8h-3.8V159.7z"/>
		<path class="st0" d="M340.3,146.9v2.3c0.5-0.9,1.1-1.5,1.9-1.9c0.8-0.4,1.6-0.6,2.6-0.6c0.4,0,0.8,0,1.2,0.1v2.3
			c-0.5-0.2-1.1-0.3-1.8-0.3c-1.2,0-2.1,0.4-2.9,1.2s-1.1,1.9-1.1,3.2v10.8h-2.3v-17.1H340.3z"/>
		<path class="st0" d="M348.9,157.2v-3.5c0-2.4,0.6-4.2,1.8-5.3s2.8-1.7,4.8-1.7c2,0,3.5,0.6,4.7,1.7c1.2,1.1,1.8,2.9,1.8,5.3v3.5
			c0,2.4-0.6,4.2-1.8,5.3c-1.2,1.1-2.8,1.7-4.7,1.7c-2,0-3.6-0.6-4.8-1.7S348.9,159.7,348.9,157.2z M359.7,157.1v-3.2
			c0-1.9-0.4-3.2-1.1-3.9s-1.8-1.1-3.1-1.1c-1.3,0-2.4,0.4-3.1,1.1c-0.8,0.8-1.1,2.1-1.1,3.9v3.2c0,1.9,0.4,3.2,1.1,4
			c0.8,0.8,1.8,1.1,3.1,1.1c1.3,0,2.3-0.4,3.1-1.1C359.3,160.3,359.7,159,359.7,157.1z"/>
		<path class="st0" d="M366,157.2v-3.5c0-2.4,0.5-4.2,1.6-5.3c1.1-1.1,2.5-1.7,4.2-1.7c2.1,0,3.6,0.9,4.6,2.6v-8.6h2.3v23.3h-2.3
			v-2.3c-0.4,0.8-1.1,1.4-1.8,1.8c-0.8,0.4-1.7,0.6-2.8,0.6c-1.7,0-3.1-0.6-4.2-1.7S366,159.6,366,157.2z M376.4,157.1v-3
			c0-1.6-0.3-2.9-1-3.8c-0.7-1-1.7-1.4-3.1-1.4c-2.6,0-3.9,1.7-3.9,5.1v3.2c0,3.4,1.3,5.1,3.8,5.1c1.4,0,2.5-0.5,3.2-1.4
			C376,159.8,376.4,158.6,376.4,157.1z"/>
		<path class="st0" d="M383.2,157.2v-3.5c0-2.4,0.6-4.2,1.8-5.3s2.8-1.7,4.8-1.7c2,0,3.5,0.6,4.7,1.7c1.2,1.1,1.8,2.9,1.8,5.3v3.5
			c0,2.4-0.6,4.2-1.8,5.3c-1.2,1.1-2.8,1.7-4.7,1.7c-2,0-3.6-0.6-4.8-1.7S383.2,159.7,383.2,157.2z M394,157.1v-3.2
			c0-1.9-0.4-3.2-1.1-3.9s-1.8-1.1-3.1-1.1c-1.3,0-2.4,0.4-3.1,1.1c-0.8,0.8-1.1,2.1-1.1,3.9v3.2c0,1.9,0.4,3.2,1.1,4
			c0.8,0.8,1.8,1.1,3.1,1.1c1.3,0,2.3-0.4,3.1-1.1C393.6,160.3,394,159,394,157.1z"/>
		<path class="st0" d="M403.1,146.9v2.1c0.5-0.7,1.1-1.3,1.9-1.7c0.8-0.4,1.7-0.6,2.7-0.6c1.2,0,2.2,0.2,3,0.7
			c0.8,0.5,1.5,1.2,1.9,2.1c1.1-1.9,2.9-2.9,5.2-2.9c1.8,0,3.2,0.5,4.3,1.6c1,1.1,1.5,2.6,1.5,4.5v11.2h-2.3v-10.9
			c0-1.4-0.3-2.5-1-3.2c-0.7-0.7-1.6-1.1-2.9-1.1c-1.3,0-2.2,0.4-3,1.1s-1.1,1.8-1.1,3.1v11H411v-10.9c0-1.4-0.3-2.5-1-3.2
			c-0.7-0.7-1.6-1.1-2.9-1.1c-1.2,0-2.2,0.4-2.9,1.1s-1.1,1.8-1.1,3.2v10.9h-2.3v-17.1H403.1z"/>
		<path class="st0" d="M430.4,157c0,1.9,0.4,3.3,1.2,4.1c0.8,0.8,1.9,1.2,3.3,1.2c1.2,0,2.2-0.3,2.9-0.9s1-1.4,1-2.4v-0.1h2.2v0.2
			c0,1.6-0.6,2.9-1.7,3.8c-1.1,1-2.6,1.5-4.6,1.5c-2,0-3.6-0.6-4.8-1.8c-1.2-1.2-1.8-3-1.8-5.6v-3c0-2.5,0.6-4.3,1.8-5.5
			c1.2-1.2,2.8-1.8,4.7-1.8c2,0,3.5,0.6,4.7,1.8c1.2,1.2,1.8,3,1.8,5.5v2h-10.7V157z M430.4,153.9v0.4h8.4v-0.6c0-1.8-0.4-3-1.1-3.7
			c-0.7-0.7-1.8-1.1-3.1-1.1c-1.3,0-2.3,0.4-3.1,1.1C430.8,150.7,430.4,152,430.4,153.9z M438.3,140.5l-4,4.2h-2.1l3.3-4.2H438.3z"
			/>
		<path class="st0" d="M444.7,159.3v-0.1h2.2v0.1c0,0.9,0.4,1.7,1.1,2.2s1.7,0.8,3,0.8c1.3,0,2.3-0.3,3-0.8c0.7-0.5,1.1-1.3,1.1-2.2
			c0-0.9-0.3-1.5-0.8-1.9c-0.5-0.4-1.3-0.7-2.4-0.9l-2.1-0.4c-1.7-0.3-2.9-0.8-3.6-1.5c-0.8-0.7-1.1-1.7-1.1-3
			c0-1.5,0.6-2.7,1.7-3.6c1.1-0.9,2.5-1.3,4.3-1.3c1.9,0,3.4,0.4,4.5,1.3s1.7,2,1.7,3.4v0.2h-2.2v-0.1c0-0.9-0.3-1.6-1-2.1
			s-1.7-0.8-2.9-0.8c-1.2,0-2.1,0.3-2.8,0.8c-0.7,0.5-1,1.2-1,2.1c0,0.7,0.2,1.3,0.7,1.7c0.5,0.4,1.2,0.7,2.3,0.9l2.2,0.4
			c1.7,0.3,2.9,0.8,3.7,1.5s1.2,1.7,1.2,3.1c0,1.6-0.6,2.9-1.8,3.8c-1.2,0.9-2.7,1.3-4.7,1.3c-1.9,0-3.4-0.5-4.5-1.4
			C445.2,162,444.7,160.8,444.7,159.3z"/>
		<path class="st0" d="M464.8,159.7c0,1.6,0.7,2.3,2.2,2.3h1.3v2h-1.7c-1.3,0-2.3-0.4-3.1-1.1c-0.7-0.8-1.1-1.8-1.1-3.1v-11h-2.7
			v-1.8h2.7V143l2.3-1.1v5h3.8v1.8h-3.8V159.7z"/>
		<path class="st0" d="M475.3,141.1v3h-2.4v-3H475.3z M475.3,146.9v17.1H473v-17.1H475.3z"/>
		<path class="st0" d="M480,157.2v-3.5c0-2.4,0.6-4.2,1.8-5.3c1.2-1.1,2.8-1.7,4.8-1.7c2,0,3.5,0.5,4.6,1.6c1.1,1,1.7,2.4,1.7,4.2
			v0.2h-2.2v-0.2c0-1.1-0.4-2-1.1-2.7c-0.7-0.6-1.7-0.9-2.9-0.9c-1.4,0-2.5,0.4-3.3,1.1c-0.8,0.8-1.2,2.1-1.2,3.9v3.2
			c0,1.9,0.4,3.2,1.2,4c0.8,0.8,1.9,1.1,3.3,1.1c1.3,0,2.2-0.3,3-0.9c0.7-0.6,1.1-1.5,1.1-2.7v-0.2h2.2v0.1c0,1.7-0.6,3.1-1.7,4.2
			s-2.7,1.6-4.6,1.6c-2,0-3.7-0.6-4.9-1.7C480.6,161.5,480,159.7,480,157.2z"/>
		<path class="st0" d="M497,157.2v-3.5c0-2.4,0.6-4.2,1.8-5.3s2.8-1.7,4.8-1.7c2,0,3.5,0.6,4.7,1.7c1.2,1.1,1.8,2.9,1.8,5.3v3.5
			c0,2.4-0.6,4.2-1.8,5.3c-1.2,1.1-2.8,1.7-4.7,1.7c-2,0-3.6-0.6-4.8-1.7S497,159.7,497,157.2z M507.8,157.1v-3.2
			c0-1.9-0.4-3.2-1.1-3.9s-1.8-1.1-3.1-1.1c-1.3,0-2.4,0.4-3.1,1.1c-0.8,0.8-1.1,2.1-1.1,3.9v3.2c0,1.9,0.4,3.2,1.1,4
			c0.8,0.8,1.8,1.1,3.1,1.1c1.3,0,2.3-0.4,3.1-1.1C507.4,160.3,507.8,159,507.8,157.1z"/>
		<path class="st0" d="M513.7,159.3v-0.1h2.2v0.1c0,0.9,0.4,1.7,1.1,2.2s1.7,0.8,3,0.8c1.3,0,2.3-0.3,3-0.8c0.7-0.5,1.1-1.3,1.1-2.2
			c0-0.9-0.3-1.5-0.8-1.9c-0.5-0.4-1.3-0.7-2.4-0.9l-2.1-0.4c-1.7-0.3-2.9-0.8-3.6-1.5c-0.8-0.7-1.1-1.7-1.1-3
			c0-1.5,0.6-2.7,1.7-3.6c1.1-0.9,2.5-1.3,4.3-1.3c1.9,0,3.4,0.4,4.5,1.3s1.7,2,1.7,3.4v0.2h-2.2v-0.1c0-0.9-0.3-1.6-1-2.1
			s-1.7-0.8-2.9-0.8c-1.2,0-2.1,0.3-2.8,0.8c-0.7,0.5-1,1.2-1,2.1c0,0.7,0.2,1.3,0.7,1.7c0.5,0.4,1.2,0.7,2.3,0.9l2.2,0.4
			c1.7,0.3,2.9,0.8,3.7,1.5s1.2,1.7,1.2,3.1c0,1.6-0.6,2.9-1.8,3.8c-1.2,0.9-2.7,1.3-4.7,1.3c-1.9,0-3.4-0.5-4.5-1.4
			C514.2,162,513.7,160.8,513.7,159.3z"/>
	</g>
	<g>
		<path class="st0" d="M550.5,29.5c-0.8-1.5-1.2-3.2-1.2-5c0-1.8,0.4-3.5,1.2-5c0.8-1.5,2-2.6,3.4-3.5c1.5-0.8,3.1-1.3,4.9-1.3
			c1.8,0,3.5,0.4,4.9,1.3c1.5,0.8,2.6,2,3.4,3.5c0.8,1.5,1.2,3.1,1.2,5c0,1.9-0.4,3.5-1.2,5c-0.8,1.5-2,2.6-3.4,3.5
			c-1.5,0.8-3.1,1.3-4.9,1.3c-1.8,0-3.4-0.4-4.9-1.3C552.4,32.2,551.3,31,550.5,29.5z M566.7,24.5c0-1.6-0.3-3-1-4.2
			c-0.7-1.2-1.6-2.2-2.9-2.9s-2.6-1-4.1-1c-2.3,0-4.2,0.8-5.6,2.3s-2.2,3.5-2.2,5.9c0,2.4,0.7,4.4,2.2,5.9s3.4,2.3,5.6,2.3
			c2.3,0,4.2-0.8,5.7-2.3S566.7,26.9,566.7,24.5z M559.4,19c1.1,0,2,0.3,2.6,0.8c0.6,0.6,0.9,1.4,0.9,2.4c0,0.7-0.2,1.4-0.5,1.9
			c-0.3,0.5-0.8,0.9-1.5,1.1l2.2,4.7h-2l-2.1-4.5h-2v4.5h-1.8V19H559.4z M561.2,22.2c0-1.1-0.6-1.6-1.8-1.6h-2.3v3.2h2.3
			C560.6,23.8,561.2,23.3,561.2,22.2z"/>
	</g>
</g>
</svg>
