<?xml version="1.0" encoding="utf-8"?>
<!-- Generator: Adobe Illustrator 25.3.1, SVG Export Plug-In . SVG Version: 6.00 Build 0)  -->
<svg version="1.1" id="Layer_1" xmlns="http://www.w3.org/2000/svg" xmlns:xlink="http://www.w3.org/1999/xlink" x="0px" y="0px"
	 viewBox="0 0 1785.8 595.3" style="enable-background:new 0 0 1785.8 595.3;" xml:space="preserve">
<style type="text/css">
	.st0{fill:#834B8E;}
	.st1{fill:#663872;}
	.st2{fill:#71417F;}
	.st3{fill:#794584;}
</style>
<rect x="0" y="0" class="st0" width="595.3" height="595.3"/>
<g>
	<path class="st1" d="M410.6,403.7c0,3.8-3.1,6.9-6.9,6.9c-3.8,0-6.9-3.1-6.9-6.9c0-3.8,3.1-6.9,6.9-6.9
		C407.5,396.8,410.6,399.9,410.6,403.7z"/>
	<path class="st1" d="M433.7,403.7c0,3.8-3.1,6.9-6.9,6.9c-3.8,0-6.9-3.1-6.9-6.9c0-3.8,3.1-6.9,6.9-6.9
		C430.6,396.8,433.7,399.9,433.7,403.7z"/>
	<path class="st1" d="M456.7,403.7c0,3.8-3.1,6.9-6.9,6.9c-3.8,0-6.9-3.1-6.9-6.9c0-3.8,3.1-6.9,6.9-6.9
		C453.7,396.8,456.7,399.9,456.7,403.7z"/>
	<path class="st1" d="M479.8,403.7c0,3.8-3.1,6.9-6.9,6.9c-3.8,0-6.9-3.1-6.9-6.9c0-3.8,3.1-6.9,6.9-6.9
		C476.8,396.8,479.8,399.9,479.8,403.7z"/>
	<path class="st1" d="M502.9,403.7c0,3.8-3.1,6.9-6.9,6.9s-6.9-3.1-6.9-6.9c0-3.8,3.1-6.9,6.9-6.9S502.9,399.9,502.9,403.7z"/>
	<path class="st1" d="M422.1,426.8c0,3.8-3.1,6.9-6.9,6.9c-3.8,0-6.9-3.1-6.9-6.9c0-3.8,3.1-6.9,6.9-6.9
		C419,419.9,422.1,423,422.1,426.8z"/>
	<path class="st1" d="M445.2,426.8c0,3.8-3.1,6.9-6.9,6.9c-3.8,0-6.9-3.1-6.9-6.9c0-3.8,3.1-6.9,6.9-6.9
		C442.1,419.9,445.2,423,445.2,426.8z"/>
	<path class="st1" d="M468.3,426.8c0,3.8-3.1,6.9-6.9,6.9c-3.8,0-6.9-3.1-6.9-6.9c0-3.8,3.1-6.9,6.9-6.9
		C465.2,419.9,468.3,423,468.3,426.8z"/>
	<path class="st1" d="M491.4,426.8c0,3.8-3.1,6.9-6.9,6.9c-3.8,0-6.9-3.1-6.9-6.9c0-3.8,3.1-6.9,6.9-6.9
		C488.3,419.9,491.4,423,491.4,426.8z"/>
	<path class="st1" d="M422.1,473c0,3.8-3.1,6.9-6.9,6.9c-3.8,0-6.9-3.1-6.9-6.9c0-3.8,3.1-6.9,6.9-6.9
		C419,466.1,422.1,469.2,422.1,473z"/>
	<path class="st1" d="M445.2,473c0,3.8-3.1,6.9-6.9,6.9c-3.8,0-6.9-3.1-6.9-6.9c0-3.8,3.1-6.9,6.9-6.9
		C442.1,466.1,445.2,469.2,445.2,473z"/>
	<path class="st1" d="M468.3,473c0,3.8-3.1,6.9-6.9,6.9c-3.8,0-6.9-3.1-6.9-6.9c0-3.8,3.1-6.9,6.9-6.9
		C465.2,466.1,468.3,469.2,468.3,473z"/>
	<path class="st1" d="M491.4,473c0,3.8-3.1,6.9-6.9,6.9c-3.8,0-6.9-3.1-6.9-6.9c0-3.8,3.1-6.9,6.9-6.9
		C488.3,466.1,491.4,469.2,491.4,473z"/>
	<path class="st1" d="M410.6,496.1c0,3.8-3.1,6.9-6.9,6.9c-3.8,0-6.9-3.1-6.9-6.9c0-3.8,3.1-6.9,6.9-6.9
		C407.5,489.2,410.6,492.3,410.6,496.1z"/>
	<path class="st1" d="M433.7,496.1c0,3.8-3.1,6.9-6.9,6.9c-3.8,0-6.9-3.1-6.9-6.9c0-3.8,3.1-6.9,6.9-6.9
		C430.6,489.2,433.7,492.3,433.7,496.1z"/>
	<path class="st1" d="M456.7,496.1c0,3.8-3.1,6.9-6.9,6.9c-3.8,0-6.9-3.1-6.9-6.9c0-3.8,3.1-6.9,6.9-6.9
		C453.7,489.2,456.7,492.3,456.7,496.1z"/>
	<path class="st1" d="M479.8,496.1c0,3.8-3.1,6.9-6.9,6.9c-3.8,0-6.9-3.1-6.9-6.9c0-3.8,3.1-6.9,6.9-6.9
		C476.8,489.2,479.8,492.3,479.8,496.1z"/>
	<path class="st1" d="M502.9,496.1c0,3.8-3.1,6.9-6.9,6.9s-6.9-3.1-6.9-6.9c0-3.8,3.1-6.9,6.9-6.9S502.9,492.3,502.9,496.1z"/>
	<path class="st1" d="M410.6,449.9c0,3.8-3.1,6.9-6.9,6.9c-3.8,0-6.9-3.1-6.9-6.9c0-3.8,3.1-6.9,6.9-6.9
		C407.5,443,410.6,446.1,410.6,449.9z"/>
	<path class="st1" d="M433.7,449.9c0,3.8-3.1,6.9-6.9,6.9c-3.8,0-6.9-3.1-6.9-6.9c0-3.8,3.1-6.9,6.9-6.9
		C430.6,443,433.7,446.1,433.7,449.9z"/>
	<path class="st1" d="M456.7,449.9c0,3.8-3.1,6.9-6.9,6.9c-3.8,0-6.9-3.1-6.9-6.9c0-3.8,3.1-6.9,6.9-6.9
		C453.7,443,456.7,446.1,456.7,449.9z"/>
	<path class="st1" d="M479.8,449.9c0,3.8-3.1,6.9-6.9,6.9c-3.8,0-6.9-3.1-6.9-6.9c0-3.8,3.1-6.9,6.9-6.9
		C476.8,443,479.8,446.1,479.8,449.9z"/>
	<path class="st1" d="M502.9,449.9c0,3.8-3.1,6.9-6.9,6.9s-6.9-3.1-6.9-6.9c0-3.8,3.1-6.9,6.9-6.9S502.9,446.1,502.9,449.9z"/>
	<path class="st1" d="M526,403.7c0,3.8-3.1,6.9-6.9,6.9c-3.8,0-6.9-3.1-6.9-6.9c0-3.8,3.1-6.9,6.9-6.9
		C522.9,396.8,526,399.9,526,403.7z"/>
	<path class="st1" d="M549.1,403.7c0,3.8-3.1,6.9-6.9,6.9c-3.8,0-6.9-3.1-6.9-6.9c0-3.8,3.1-6.9,6.9-6.9
		C546,396.8,549.1,399.9,549.1,403.7z"/>
	<path class="st1" d="M572.2,403.7c0,3.8-3.1,6.9-6.9,6.9c-3.8,0-6.9-3.1-6.9-6.9c0-3.8,3.1-6.9,6.9-6.9
		C569.1,396.8,572.2,399.9,572.2,403.7z"/>
	<path class="st1" d="M595.3,403.7c0,3.8-3.1,6.9-6.9,6.9c-3.8,0-6.9-3.1-6.9-6.9c0-3.8,3.1-6.9,6.9-6.9
		C592.2,396.8,595.3,399.9,595.3,403.7z"/>
	<path class="st1" d="M514.5,426.8c0,3.8-3.1,6.9-6.9,6.9c-3.8,0-6.9-3.1-6.9-6.9c0-3.8,3.1-6.9,6.9-6.9
		C511.4,419.9,514.5,423,514.5,426.8z"/>
	<path class="st1" d="M537.6,426.8c0,3.8-3.1,6.9-6.9,6.9c-3.8,0-6.9-3.1-6.9-6.9c0-3.8,3.1-6.9,6.9-6.9
		C534.5,419.9,537.6,423,537.6,426.8z"/>
	<path class="st1" d="M560.6,426.8c0,3.8-3.1,6.9-6.9,6.9c-3.8,0-6.9-3.1-6.9-6.9c0-3.8,3.1-6.9,6.9-6.9
		C557.6,419.9,560.6,423,560.6,426.8z"/>
	<path class="st1" d="M583.7,426.8c0,3.8-3.1,6.9-6.9,6.9c-3.8,0-6.9-3.1-6.9-6.9c0-3.8,3.1-6.9,6.9-6.9
		C580.7,419.9,583.7,423,583.7,426.8z"/>
	<path class="st1" d="M514.5,473c0,3.8-3.1,6.9-6.9,6.9c-3.8,0-6.9-3.1-6.9-6.9c0-3.8,3.1-6.9,6.9-6.9
		C511.4,466.1,514.5,469.2,514.5,473z"/>
	<path class="st1" d="M537.6,473c0,3.8-3.1,6.9-6.9,6.9c-3.8,0-6.9-3.1-6.9-6.9c0-3.8,3.1-6.9,6.9-6.9
		C534.5,466.1,537.6,469.2,537.6,473z"/>
	<path class="st1" d="M560.6,473c0,3.8-3.1,6.9-6.9,6.9c-3.8,0-6.9-3.1-6.9-6.9c0-3.8,3.1-6.9,6.9-6.9
		C557.6,466.1,560.6,469.2,560.6,473z"/>
	<path class="st1" d="M583.7,473c0,3.8-3.1,6.9-6.9,6.9c-3.8,0-6.9-3.1-6.9-6.9c0-3.8,3.1-6.9,6.9-6.9
		C580.7,466.1,583.7,469.2,583.7,473z"/>
	<path class="st1" d="M526,496.1c0,3.8-3.1,6.9-6.9,6.9c-3.8,0-6.9-3.1-6.9-6.9c0-3.8,3.1-6.9,6.9-6.9
		C522.9,489.2,526,492.3,526,496.1z"/>
	<path class="st1" d="M549.1,496.1c0,3.8-3.1,6.9-6.9,6.9c-3.8,0-6.9-3.1-6.9-6.9c0-3.8,3.1-6.9,6.9-6.9
		C546,489.2,549.1,492.3,549.1,496.1z"/>
	<path class="st1" d="M572.2,496.1c0,3.8-3.1,6.9-6.9,6.9c-3.8,0-6.9-3.1-6.9-6.9c0-3.8,3.1-6.9,6.9-6.9
		C569.1,489.2,572.2,492.3,572.2,496.1z"/>
	<path class="st1" d="M595.3,496.1c0,3.8-3.1,6.9-6.9,6.9c-3.8,0-6.9-3.1-6.9-6.9c0-3.8,3.1-6.9,6.9-6.9
		C592.2,489.2,595.3,492.3,595.3,496.1z"/>
	<path class="st1" d="M526,449.9c0,3.8-3.1,6.9-6.9,6.9c-3.8,0-6.9-3.1-6.9-6.9c0-3.8,3.1-6.9,6.9-6.9
		C522.9,443,526,446.1,526,449.9z"/>
	<path class="st1" d="M549.1,449.9c0,3.8-3.1,6.9-6.9,6.9c-3.8,0-6.9-3.1-6.9-6.9c0-3.8,3.1-6.9,6.9-6.9
		C546,443,549.1,446.1,549.1,449.9z"/>
	<path class="st1" d="M572.2,449.9c0,3.8-3.1,6.9-6.9,6.9c-3.8,0-6.9-3.1-6.9-6.9c0-3.8,3.1-6.9,6.9-6.9
		C569.1,443,572.2,446.1,572.2,449.9z"/>
	<path class="st1" d="M595.3,449.9c0,3.8-3.1,6.9-6.9,6.9c-3.8,0-6.9-3.1-6.9-6.9c0-3.8,3.1-6.9,6.9-6.9
		C592.2,443,595.3,446.1,595.3,449.9z"/>
	<path class="st1" d="M422.1,519.1c0,3.8-3.1,6.9-6.9,6.9c-3.8,0-6.9-3.1-6.9-6.9c0-3.8,3.1-6.9,6.9-6.9
		C419,512.3,422.1,515.4,422.1,519.1z"/>
	<path class="st1" d="M445.2,519.1c0,3.8-3.1,6.9-6.9,6.9c-3.8,0-6.9-3.1-6.9-6.9c0-3.8,3.1-6.9,6.9-6.9
		C442.1,512.3,445.2,515.4,445.2,519.1z"/>
	<path class="st1" d="M468.3,519.1c0,3.8-3.1,6.9-6.9,6.9c-3.8,0-6.9-3.1-6.9-6.9c0-3.8,3.1-6.9,6.9-6.9
		C465.2,512.3,468.3,515.4,468.3,519.1z"/>
	<path class="st1" d="M491.4,519.1c0,3.8-3.1,6.9-6.9,6.9c-3.8,0-6.9-3.1-6.9-6.9c0-3.8,3.1-6.9,6.9-6.9
		C488.3,512.3,491.4,515.4,491.4,519.1z"/>
	<path class="st1" d="M422.1,565.3c0,3.8-3.1,6.9-6.9,6.9c-3.8,0-6.9-3.1-6.9-6.9c0-3.8,3.1-6.9,6.9-6.9
		C419,558.5,422.1,561.5,422.1,565.3z"/>
	<path class="st1" d="M445.2,565.3c0,3.8-3.1,6.9-6.9,6.9c-3.8,0-6.9-3.1-6.9-6.9c0-3.8,3.1-6.9,6.9-6.9
		C442.1,558.5,445.2,561.5,445.2,565.3z"/>
	<path class="st1" d="M468.3,565.3c0,3.8-3.1,6.9-6.9,6.9c-3.8,0-6.9-3.1-6.9-6.9c0-3.8,3.1-6.9,6.9-6.9
		C465.2,558.5,468.3,561.5,468.3,565.3z"/>
	<path class="st1" d="M491.4,565.3c0,3.8-3.1,6.9-6.9,6.9c-3.8,0-6.9-3.1-6.9-6.9c0-3.8,3.1-6.9,6.9-6.9
		C488.3,558.5,491.4,561.5,491.4,565.3z"/>
	<path class="st1" d="M410.6,588.4c0,3.8-3.1,6.9-6.9,6.9c-3.8,0-6.9-3.1-6.9-6.9c0-3.8,3.1-6.9,6.9-6.9
		C407.5,581.6,410.6,584.6,410.6,588.4z"/>
	<path class="st1" d="M433.7,588.4c0,3.8-3.1,6.9-6.9,6.9c-3.8,0-6.9-3.1-6.9-6.9c0-3.8,3.1-6.9,6.9-6.9
		C430.6,581.6,433.7,584.6,433.7,588.4z"/>
	<path class="st1" d="M456.7,588.4c0,3.8-3.1,6.9-6.9,6.9c-3.8,0-6.9-3.1-6.9-6.9c0-3.8,3.1-6.9,6.9-6.9
		C453.7,581.6,456.7,584.6,456.7,588.4z"/>
	<path class="st1" d="M479.8,588.4c0,3.8-3.1,6.9-6.9,6.9c-3.8,0-6.9-3.1-6.9-6.9c0-3.8,3.1-6.9,6.9-6.9
		C476.8,581.6,479.8,584.6,479.8,588.4z"/>
	<path class="st1" d="M502.9,588.4c0,3.8-3.1,6.9-6.9,6.9s-6.9-3.1-6.9-6.9c0-3.8,3.1-6.9,6.9-6.9S502.9,584.6,502.9,588.4z"/>
	<path class="st1" d="M410.6,542.2c0,3.8-3.1,6.9-6.9,6.9c-3.8,0-6.9-3.1-6.9-6.9c0-3.8,3.1-6.9,6.9-6.9
		C407.5,535.4,410.6,538.4,410.6,542.2z"/>
	<path class="st1" d="M433.7,542.2c0,3.8-3.1,6.9-6.9,6.9c-3.8,0-6.9-3.1-6.9-6.9c0-3.8,3.1-6.9,6.9-6.9
		C430.6,535.4,433.7,538.4,433.7,542.2z"/>
	<path class="st1" d="M456.7,542.2c0,3.8-3.1,6.9-6.9,6.9c-3.8,0-6.9-3.1-6.9-6.9c0-3.8,3.1-6.9,6.9-6.9
		C453.7,535.4,456.7,538.4,456.7,542.2z"/>
	<path class="st1" d="M479.8,542.2c0,3.8-3.1,6.9-6.9,6.9c-3.8,0-6.9-3.1-6.9-6.9c0-3.8,3.1-6.9,6.9-6.9
		C476.8,535.4,479.8,538.4,479.8,542.2z"/>
	<path class="st1" d="M502.9,542.2c0,3.8-3.1,6.9-6.9,6.9s-6.9-3.1-6.9-6.9c0-3.8,3.1-6.9,6.9-6.9S502.9,538.4,502.9,542.2z"/>
	<path class="st1" d="M514.5,519.1c0,3.8-3.1,6.9-6.9,6.9c-3.8,0-6.9-3.1-6.9-6.9c0-3.8,3.1-6.9,6.9-6.9
		C511.4,512.3,514.5,515.4,514.5,519.1z"/>
	<path class="st1" d="M537.6,519.1c0,3.8-3.1,6.9-6.9,6.9c-3.8,0-6.9-3.1-6.9-6.9c0-3.8,3.1-6.9,6.9-6.9
		C534.5,512.3,537.6,515.4,537.6,519.1z"/>
	<path class="st1" d="M560.6,519.1c0,3.8-3.1,6.9-6.9,6.9c-3.8,0-6.9-3.1-6.9-6.9c0-3.8,3.1-6.9,6.9-6.9
		C557.6,512.3,560.6,515.4,560.6,519.1z"/>
	<path class="st1" d="M583.7,519.1c0,3.8-3.1,6.9-6.9,6.9c-3.8,0-6.9-3.1-6.9-6.9c0-3.8,3.1-6.9,6.9-6.9
		C580.7,512.3,583.7,515.4,583.7,519.1z"/>
	<path class="st1" d="M514.5,565.3c0,3.8-3.1,6.9-6.9,6.9c-3.8,0-6.9-3.1-6.9-6.9c0-3.8,3.1-6.9,6.9-6.9
		C511.4,558.5,514.5,561.5,514.5,565.3z"/>
	<path class="st1" d="M537.6,565.3c0,3.8-3.1,6.9-6.9,6.9c-3.8,0-6.9-3.1-6.9-6.9c0-3.8,3.1-6.9,6.9-6.9
		C534.5,558.5,537.6,561.5,537.6,565.3z"/>
	<path class="st1" d="M560.6,565.3c0,3.8-3.1,6.9-6.9,6.9c-3.8,0-6.9-3.1-6.9-6.9c0-3.8,3.1-6.9,6.9-6.9
		C557.6,558.5,560.6,561.5,560.6,565.3z"/>
	<path class="st1" d="M583.7,565.3c0,3.8-3.1,6.9-6.9,6.9c-3.8,0-6.9-3.1-6.9-6.9c0-3.8,3.1-6.9,6.9-6.9
		C580.7,558.5,583.7,561.5,583.7,565.3z"/>
	<path class="st1" d="M526,588.4c0,3.8-3.1,6.9-6.9,6.9c-3.8,0-6.9-3.1-6.9-6.9c0-3.8,3.1-6.9,6.9-6.9
		C522.9,581.6,526,584.6,526,588.4z"/>
	<path class="st1" d="M549.1,588.4c0,3.8-3.1,6.9-6.9,6.9c-3.8,0-6.9-3.1-6.9-6.9c0-3.8,3.1-6.9,6.9-6.9
		C546,581.6,549.1,584.6,549.1,588.4z"/>
	<path class="st1" d="M572.2,588.4c0,3.8-3.1,6.9-6.9,6.9c-3.8,0-6.9-3.1-6.9-6.9c0-3.8,3.1-6.9,6.9-6.9
		C569.1,581.6,572.2,584.6,572.2,588.4z"/>
	<circle class="st1" cx="588.4" cy="588.4" r="6.9"/>
	<path class="st1" d="M526,542.2c0,3.8-3.1,6.9-6.9,6.9c-3.8,0-6.9-3.1-6.9-6.9c0-3.8,3.1-6.9,6.9-6.9
		C522.9,535.4,526,538.4,526,542.2z"/>
	<path class="st1" d="M549.1,542.2c0,3.8-3.1,6.9-6.9,6.9c-3.8,0-6.9-3.1-6.9-6.9c0-3.8,3.1-6.9,6.9-6.9
		C546,535.4,549.1,538.4,549.1,542.2z"/>
	<path class="st1" d="M572.2,542.2c0,3.8-3.1,6.9-6.9,6.9c-3.8,0-6.9-3.1-6.9-6.9c0-3.8,3.1-6.9,6.9-6.9
		C569.1,535.4,572.2,538.4,572.2,542.2z"/>
	<path class="st1" d="M595.3,542.2c0,3.8-3.1,6.9-6.9,6.9c-3.8,0-6.9-3.1-6.9-6.9c0-3.8,3.1-6.9,6.9-6.9
		C592.2,535.4,595.3,538.4,595.3,542.2z"/>
</g>
<rect x="0" y="0" class="st2" width="198.4" height="198.4"/>
<polygon class="st3" points="0,0 0,198.4 198.4,198.4 "/>
<rect x="0" y="0" class="st0" width="99.2" height="99.2"/>
<polygon class="st1" points="0,198.4 198.4,198.4 198.4,0 "/>
<rect x="198.4" y="396.8" class="st3" width="198.4" height="198.4"/>
<rect x="198.4" y="496.1" class="st1" width="99.2" height="99.2"/>
<polygon class="st0" points="198.4,496.1 297.6,496.1 297.6,396.9 "/>
<rect x="198.4" y="198.4" class="st1" width="396.8" height="198.4"/>
<rect x="496" y="198.4" class="st3" width="99.3" height="198.4"/>
<ellipse transform="matrix(0.9987 -5.121699e-02 5.121699e-02 0.9987 -4.6907 15.3743)" class="st3" cx="297.6" cy="99.2" rx="99.2" ry="99.2"/>
<path class="st0" d="M595.3,297.6c0,54.8-44.4,99.2-99.2,99.2c-54.8,0-99.2-44.4-99.2-99.2c0-54.8,44.4-99.2,99.2-99.2
	C550.9,198.4,595.3,242.8,595.3,297.6z"/>
<path class="st2" d="M545.7,297.6c0,27.4-22.2,49.6-49.6,49.6c-27.4,0-49.6-22.2-49.6-49.6c0-27.4,22.2-49.6,49.6-49.6
	C523.5,248,545.7,270.2,545.7,297.6z"/>
<path class="st1" d="M545.7,297.6c0,27.4-22.2,49.6-49.6,49.6c-27.4,0-49.6-22.2-49.6-49.6H545.7z"/>
<path class="st2" d="M297.6,297.6c0-54.8-44.4-99.2-99.2-99.2h0v198.4c0,0,0,0,0,0C253.2,396.8,297.6,352.4,297.6,297.6z"/>
<path class="st2" d="M0,396.9c0,109.6,88.8,198.4,198.3,198.4l0.1,0l0-396.8l0,0C88.8,198.4,0,287.3,0,396.9z"/>
<path class="st0" d="M99.2,396.9c0,54.8,44.4,99.2,99.2,99.2l0,0l0-99.2L99.2,396.9z"/>
<path class="st0" d="M297.6,297.6c0-54.8-44.4-99.2-99.2-99.2l0,0l0,99.2L297.6,297.6z"/>
<path class="st1" d="M99.2,396.8c0-54.8,44.4-99.2,99.2-99.2l0,0l0,99.2L99.2,396.8z"/>
<path class="st2" d="M347.2,545.7c0-27.4-22.2-49.6-49.6-49.6h0v99.2c0,0,0,0,0,0C325,595.3,347.2,573.1,347.2,545.7z"/>
<path class="st3" d="M148.8,248c0,27.4,22.2,49.6,49.6,49.6h0v-99.2h0C171,198.4,148.8,220.6,148.8,248z"/>
<path class="st1" d="M49.6,49.6c0,27.4,22.2,49.6,49.6,49.6h0V0c0,0,0,0,0,0C71.8,0,49.6,22.2,49.6,49.6z"/>
<g>
	<polygon class="st3" points="144.3,396.8 152.8,396.9 198.4,351.2 198.4,342.7 	"/>
	<polygon class="st3" points="182.7,396.9 191.2,396.9 198.4,389.7 198.4,381.2 	"/>
	<polygon class="st3" points="163.5,396.9 172,396.9 198.4,370.4 198.4,362 	"/>
	<polygon class="st3" points="125.1,396.8 133.6,396.8 198.4,332 198.4,323.5 	"/>
	<path class="st3" d="M107.7,356.6c-1.9,4.3-3.5,8.7-4.8,13.3l68.5-68.5c-4.6,1.3-9,2.9-13.3,4.8L107.7,356.6z"/>
	<path class="st3" d="M100.1,383.4c-0.4,3.1-0.7,6.2-0.8,9.3l95-95c-3.1,0.1-6.2,0.4-9.3,0.8L100.1,383.4z"/>
	<polygon class="st3" points="105.9,396.8 114.4,396.8 198.4,312.8 198.4,304.3 	"/>
</g>
<path class="st1" d="M396.9,44.7v-8.5L433.1,0h8.5L396.9,44.7z M480,0h-8.5l-74.7,74.7v8.5L480,0z M460.8,0h-8.5l-55.5,55.5v8.5
	L460.8,0z M403.2,0h-6.3v6.3L403.2,0z M422.4,0h-8.5l-17,17v8.5L422.4,0z M499.2,0h-8.5l-93.9,93.9v8.5L499.2,0z M595.3,0h-8.5
	L396.9,189.9v8.5L595.3,0z M576.1,0h-8.5L396.9,170.7v8.5L576.1,0z M518.4,0h-8.5L396.9,113.1v8.5L518.4,0z M556.9,0h-8.5
	L396.9,151.5v8.5L556.9,0z M537.6,0h-8.5L396.9,132.3v8.5L537.6,0z"/>
<g>
	<path class="st2" d="M480,297.6h-8.5l45.1,45.1c1.9-0.9,3.8-1.9,5.5-3L480,297.6z"/>
	<path class="st2" d="M501.6,346.9c2.4-0.3,4.8-0.7,7.2-1.3l-48-48h-8.5L501.6,346.9z"/>
	<path class="st2" d="M499.2,297.6h-8.5l37.6,37.6c1.5-1.3,3-2.7,4.3-4.2L499.2,297.6z"/>
	<path class="st2" d="M446.7,302.8c0.4,3.8,1.2,7.4,2.4,10.9l30.9,30.9c3.5,1.2,7.1,2,10.9,2.4L446.7,302.8z"/>
	<path class="st2" d="M518.4,297.6h-8.5l27.4,27.4c1.1-1.7,2.2-3.5,3.1-5.4L518.4,297.6z"/>
	<path class="st2" d="M537.6,297.6h-8.5l14.4,14.4c0.7-2.2,1.2-4.6,1.6-6.9L537.6,297.6z"/>
</g>
<g>
	<polygon class="st2" points="496.1,198.4 496.1,192.1 502.4,198.4 	"/>
	<polygon class="st2" points="595.3,118.4 595.3,126.9 567.6,99.2 576.1,99.2 	"/>
	<polygon class="st2" points="595.3,99.2 595.3,107.7 586.8,99.2 595.3,99.2 	"/>
	<polygon class="st2" points="509.9,99.2 518.4,99.2 595.3,176.1 595.3,184.5 	"/>
	<polygon class="st2" points="595.3,137.6 595.3,146.1 548.4,99.2 556.8,99.2 	"/>
	<polygon class="st2" points="595.3,156.8 595.3,165.3 529.2,99.2 537.6,99.2 	"/>
	<polygon class="st2" points="513.1,198.4 496.1,181.4 496.1,172.9 521.6,198.4 	"/>
	<polygon class="st2" points="595.3,195.3 595.3,198.4 589.9,198.4 496.1,104.5 496.1,99.2 499.2,99.2 	"/>
	<polygon class="st2" points="570.7,198.4 496.1,123.8 496.1,115.3 579.2,198.4 	"/>
	<polygon class="st2" points="532.3,198.4 496.1,162.2 496.1,153.7 540.8,198.4 	"/>
	<polygon class="st2" points="551.5,198.4 496.1,143 496.1,134.5 560,198.4 	"/>
</g>
<g>
	<polygon class="st2" points="377.6,396.9 369.2,396.9 383,410.7 387.2,406.5 	"/>
	<polygon class="st2" points="358.4,396.9 349.9,396.9 373.4,420.3 377.6,416.1 	"/>
	<polygon class="st2" points="396.8,396.9 388.4,396.9 392.6,401.1 396.8,396.9 	"/>
	<polygon class="st2" points="339.2,396.9 330.7,396.9 363.8,429.9 368,425.7 	"/>
	<polygon class="st2" points="358.4,435.3 320,396.9 311.5,396.9 354.2,439.5 	"/>
	<polygon class="st2" points="310.4,483.3 297.6,470.5 297.6,479 306.2,487.5 	"/>
	<polygon class="st2" points="300.8,492.9 297.6,489.8 297.6,496.1 297.6,496.1 	"/>
	<polygon class="st2" points="320,473.7 297.6,451.3 297.6,459.8 315.8,477.9 	"/>
	<polygon class="st2" points="329.6,464.1 297.6,432.1 297.6,440.6 325.4,468.3 	"/>
	<polygon class="st2" points="348.8,444.9 300.8,396.9 297.6,396.9 297.6,402.2 344.6,449.1 	"/>
	<polygon class="st2" points="339.2,454.5 297.6,412.9 297.6,421.4 335,458.7 	"/>
</g>
<g>
	<path class="st1" d="M221.5,53c0,3.8,3.1,6.9,6.9,6.9c3.8,0,6.9-3.1,6.9-6.9c0-3.8-3.1-6.9-6.9-6.9C224.6,46.2,221.5,49.2,221.5,53
		z"/>
	<path class="st1" d="M286.1,23.1c-3.8,0-6.9,3.1-6.9,6.9c0,3.8,3.1,6.9,6.9,6.9c3.8,0,6.9-3.1,6.9-6.9
		C293,26.2,289.9,23.1,286.1,23.1z"/>
	<path class="st1" d="M286.1,129.2c3.8,0,6.9-3.1,6.9-6.9c0-3.8-3.1-6.9-6.9-6.9c-3.8,0-6.9,3.1-6.9,6.9
		C279.2,126.1,282.3,129.2,286.1,129.2z"/>
	<path class="st1" d="M267.7,53c0,3.8,3.1,6.9,6.9,6.9c3.8,0,6.9-3.1,6.9-6.9c0-3.8-3.1-6.9-6.9-6.9C270.8,46.2,267.7,49.2,267.7,53
		z"/>
	<path class="st1" d="M290.8,53c0,3.8,3.1,6.9,6.9,6.9h0V46.2h0C293.8,46.2,290.8,49.2,290.8,53z"/>
	<path class="st1" d="M239.9,23.1c-3.8,0-6.9,3.1-6.9,6.9c0,3.8,3.1,6.9,6.9,6.9c3.8,0,6.9-3.1,6.9-6.9
		C246.8,26.2,243.7,23.1,239.9,23.1z"/>
	<path class="st1" d="M244.6,53c0,3.8,3.1,6.9,6.9,6.9c3.8,0,6.9-3.1,6.9-6.9c0-3.8-3.1-6.9-6.9-6.9C247.7,46.2,244.6,49.2,244.6,53
		z"/>
	<path class="st1" d="M263,23.1c-3.8,0-6.9,3.1-6.9,6.9c0,3.8,3.1,6.9,6.9,6.9c3.8,0,6.9-3.1,6.9-6.9
		C269.9,26.2,266.8,23.1,263,23.1z"/>
	<path class="st1" d="M263,83c3.8,0,6.9-3.1,6.9-6.9c0-3.8-3.1-6.9-6.9-6.9c-3.8,0-6.9,3.1-6.9,6.9C256.1,79.9,259.2,83,263,83z"/>
	<path class="st1" d="M239.9,83c3.8,0,6.9-3.1,6.9-6.9c0-3.8-3.1-6.9-6.9-6.9c-3.8,0-6.9,3.1-6.9,6.9C233.1,79.9,236.1,83,239.9,83z
		"/>
	<path class="st1" d="M239.9,129.2c3.8,0,6.9-3.1,6.9-6.9c0-3.8-3.1-6.9-6.9-6.9c-3.8,0-6.9,3.1-6.9,6.9
		C233.1,126.1,236.1,129.2,239.9,129.2z"/>
	<path class="st1" d="M286.1,83c3.8,0,6.9-3.1,6.9-6.9c0-3.8-3.1-6.9-6.9-6.9c-3.8,0-6.9,3.1-6.9,6.9C279.2,79.9,282.3,83,286.1,83z
		"/>
	<path class="st1" d="M258.3,99.2c0-3.8-3.1-6.9-6.9-6.9c-3.8,0-6.9,3.1-6.9,6.9c0,3.8,3.1,6.9,6.9,6.9
		C255.2,106.1,258.3,103,258.3,99.2z"/>
	<path class="st1" d="M221.5,99.2c0,3.8,3.1,6.9,6.9,6.9c3.8,0,6.9-3.1,6.9-6.9c0-3.8-3.1-6.9-6.9-6.9
		C224.6,92.3,221.5,95.4,221.5,99.2z"/>
	<path class="st1" d="M281.4,99.2c0-3.8-3.1-6.9-6.9-6.9c-3.8,0-6.9,3.1-6.9,6.9c0,3.8,3.1,6.9,6.9,6.9
		C278.3,106.1,281.4,103,281.4,99.2z"/>
	<path class="st1" d="M210,76.1c0,3.8,3.1,6.9,6.9,6.9c3.8,0,6.9-3.1,6.9-6.9c0-3.8-3.1-6.9-6.9-6.9C213,69.3,210,72.3,210,76.1z"/>
	<path class="st1" d="M263,129.2c3.8,0,6.9-3.1,6.9-6.9c0-3.8-3.1-6.9-6.9-6.9c-3.8,0-6.9,3.1-6.9,6.9
		C256.1,126.1,259.2,129.2,263,129.2z"/>
	<path class="st1" d="M297.6,106.1V92.3h0c-3.8,0-6.9,3.1-6.9,6.9C290.8,103,293.8,106.1,297.6,106.1L297.6,106.1z"/>
	<path class="st1" d="M212.1,145.4c0-3.3-2.4-6.1-5.6-6.7c1.4,3.3,3.1,6.6,4.9,9.7C211.9,147.5,212.1,146.5,212.1,145.4z"/>
	<path class="st1" d="M212.1,53c0-1.1-0.3-2.1-0.7-3c-1.8,3.1-3.4,6.4-4.9,9.7C209.8,59.2,212.1,56.4,212.1,53z"/>
	<path class="st1" d="M205.3,106.1c3.8,0,6.9-3.1,6.9-6.9c0-3.8-3.1-6.9-6.9-6.9c-3.8,0-6.9,3.1-6.9,6.9
		C198.4,103,201.5,106.1,205.3,106.1z"/>
	<path class="st1" d="M251.5,13.7c3.3,0,6.1-2.4,6.7-5.6c-3.3,1.4-6.6,3.1-9.7,4.9C249.4,13.5,250.4,13.7,251.5,13.7z"/>
	<path class="st1" d="M267.7,6.9c0,3.8,3.1,6.9,6.9,6.9c3.8,0,6.9-3.1,6.9-6.9c0-2-0.9-3.9-2.3-5.1c-3.7,0.7-7.4,1.6-11,2.7
		C267.8,5.2,267.7,6,267.7,6.9z"/>
	<path class="st1" d="M210,122.3c0,3.8,3.1,6.9,6.9,6.9c3.8,0,6.9-3.1,6.9-6.9c0-3.8-3.1-6.9-6.9-6.9C213,115.4,210,118.5,210,122.3
		z"/>
	<path class="st1" d="M281.4,191.6c0-3.8-3.1-6.9-6.9-6.9c-3.8,0-6.9,3.1-6.9,6.9c0,0.8,0.2,1.7,0.4,2.4c3.6,1.1,7.2,2,11,2.7
		C280.5,195.4,281.4,193.6,281.4,191.6z"/>
	<path class="st1" d="M251.5,184.7c-1.1,0-2.1,0.3-3,0.7c3.1,1.8,6.4,3.4,9.7,4.9C257.6,187.1,254.8,184.7,251.5,184.7z"/>
	<path class="st1" d="M297.6,184.7L297.6,184.7c-3.8,0-6.9,3.1-6.9,6.9c0,3.8,3.1,6.9,6.9,6.9h0V184.7z"/>
	<path class="st1" d="M239.9,175.3c3.8,0,6.9-3.1,6.9-6.9c0-3.8-3.1-6.9-6.9-6.9c-3.8,0-6.9,3.1-6.9,6.9
		C233.1,172.3,236.1,175.3,239.9,175.3z"/>
	<path class="st1" d="M258.3,145.4c0-3.8-3.1-6.9-6.9-6.9c-3.8,0-6.9,3.1-6.9,6.9c0,3.8,3.1,6.9,6.9,6.9
		C255.2,152.2,258.3,149.2,258.3,145.4z"/>
	<path class="st1" d="M263,175.3c3.8,0,6.9-3.1,6.9-6.9c0-3.8-3.1-6.9-6.9-6.9c-3.8,0-6.9,3.1-6.9,6.9
		C256.1,172.3,259.2,175.3,263,175.3z"/>
	<path class="st1" d="M235.2,145.4c0-3.8-3.1-6.9-6.9-6.9c-3.8,0-6.9,3.1-6.9,6.9c0,3.8,3.1,6.9,6.9,6.9
		C232.2,152.2,235.2,149.2,235.2,145.4z"/>
	<path class="st1" d="M286.1,175.3c3.8,0,6.9-3.1,6.9-6.9c0-3.8-3.1-6.9-6.9-6.9c-3.8,0-6.9,3.1-6.9,6.9
		C279.2,172.3,282.3,175.3,286.1,175.3z"/>
	<path class="st1" d="M281.4,145.4c0-3.8-3.1-6.9-6.9-6.9c-3.8,0-6.9,3.1-6.9,6.9c0,3.8,3.1,6.9,6.9,6.9
		C278.3,152.2,281.4,149.2,281.4,145.4z"/>
	<path class="st1" d="M297.6,152.2v-13.7h0c-3.8,0-6.9,3.1-6.9,6.9C290.8,149.2,293.8,152.2,297.6,152.2L297.6,152.2z"/>
	<path class="st1" d="M290.8,6.9c0,3.8,3.1,6.9,6.9,6.9h0V0c0,0-0.1,0-0.1,0C293.8,0,290.8,3.1,290.8,6.9z"/>
</g>
<rect x="297.6" y="198.4" class="st2" width="99.2" height="99.2"/>
<path class="st3" d="M396.9,297.6c0-54.8-44.4-99.2-99.2-99.2l0,0l0,99.2L396.9,297.6z"/>
<path class="st3" d="M99.2,396.8c0-54.8-44.4-99.2-99.2-99.2l0,0l0,99.2L99.2,396.8z"/>
<rect x="595.3" y="0" class="st0" width="595.3" height="595.3"/>
<g>
	<path class="st1" d="M786.8,410.6c-3.8,0-6.9-3.1-6.9-6.9c0-3.8,3.1-6.9,6.9-6.9c3.8,0,6.9,3.1,6.9,6.9
		C793.7,407.5,790.6,410.6,786.8,410.6z"/>
	<path class="st1" d="M786.8,433.7c-3.8,0-6.9-3.1-6.9-6.9c0-3.8,3.1-6.9,6.9-6.9c3.8,0,6.9,3.1,6.9,6.9
		C793.7,430.6,790.6,433.7,786.8,433.7z"/>
	<path class="st1" d="M786.8,456.7c-3.8,0-6.9-3.1-6.9-6.9c0-3.8,3.1-6.9,6.9-6.9c3.8,0,6.9,3.1,6.9,6.9
		C793.7,453.7,790.6,456.7,786.8,456.7z"/>
	<path class="st1" d="M786.8,479.8c-3.8,0-6.9-3.1-6.9-6.9c0-3.8,3.1-6.9,6.9-6.9c3.8,0,6.9,3.1,6.9,6.9
		C793.7,476.8,790.6,479.8,786.8,479.8z"/>
	<path class="st1" d="M786.8,502.9c-3.8,0-6.9-3.1-6.9-6.9s3.1-6.9,6.9-6.9c3.8,0,6.9,3.1,6.9,6.9S790.6,502.9,786.8,502.9z"/>
	<path class="st1" d="M763.8,422.1c-3.8,0-6.9-3.1-6.9-6.9c0-3.8,3.1-6.9,6.9-6.9c3.8,0,6.9,3.1,6.9,6.9
		C770.6,419,767.5,422.1,763.8,422.1z"/>
	<path class="st1" d="M763.8,445.2c-3.8,0-6.9-3.1-6.9-6.9c0-3.8,3.1-6.9,6.9-6.9c3.8,0,6.9,3.1,6.9,6.9
		C770.6,442.1,767.5,445.2,763.8,445.2z"/>
	<path class="st1" d="M763.8,468.3c-3.8,0-6.9-3.1-6.9-6.9c0-3.8,3.1-6.9,6.9-6.9c3.8,0,6.9,3.1,6.9,6.9
		C770.6,465.2,767.5,468.3,763.8,468.3z"/>
	<path class="st1" d="M763.8,491.4c-3.8,0-6.9-3.1-6.9-6.9c0-3.8,3.1-6.9,6.9-6.9c3.8,0,6.9,3.1,6.9,6.9
		C770.6,488.3,767.5,491.4,763.8,491.4z"/>
	<path class="st1" d="M717.6,422.1c-3.8,0-6.9-3.1-6.9-6.9c0-3.8,3.1-6.9,6.9-6.9c3.8,0,6.9,3.1,6.9,6.9
		C724.4,419,721.4,422.1,717.6,422.1z"/>
	<path class="st1" d="M717.6,445.2c-3.8,0-6.9-3.1-6.9-6.9c0-3.8,3.1-6.9,6.9-6.9c3.8,0,6.9,3.1,6.9,6.9
		C724.4,442.1,721.4,445.2,717.6,445.2z"/>
	<path class="st1" d="M717.6,468.3c-3.8,0-6.9-3.1-6.9-6.9c0-3.8,3.1-6.9,6.9-6.9c3.8,0,6.9,3.1,6.9,6.9
		C724.4,465.2,721.4,468.3,717.6,468.3z"/>
	<path class="st1" d="M717.6,491.4c-3.8,0-6.9-3.1-6.9-6.9c0-3.8,3.1-6.9,6.9-6.9c3.8,0,6.9,3.1,6.9,6.9
		C724.4,488.3,721.4,491.4,717.6,491.4z"/>
	<path class="st1" d="M694.5,410.6c-3.8,0-6.9-3.1-6.9-6.9c0-3.8,3.1-6.9,6.9-6.9c3.8,0,6.9,3.1,6.9,6.9
		C701.4,407.5,698.3,410.6,694.5,410.6z"/>
	<path class="st1" d="M694.5,433.7c-3.8,0-6.9-3.1-6.9-6.9c0-3.8,3.1-6.9,6.9-6.9c3.8,0,6.9,3.1,6.9,6.9
		C701.4,430.6,698.3,433.7,694.5,433.7z"/>
	<path class="st1" d="M694.5,456.7c-3.8,0-6.9-3.1-6.9-6.9c0-3.8,3.1-6.9,6.9-6.9c3.8,0,6.9,3.1,6.9,6.9
		C701.4,453.7,698.3,456.7,694.5,456.7z"/>
	<path class="st1" d="M694.5,479.8c-3.8,0-6.9-3.1-6.9-6.9c0-3.8,3.1-6.9,6.9-6.9c3.8,0,6.9,3.1,6.9,6.9
		C701.4,476.8,698.3,479.8,694.5,479.8z"/>
	<path class="st1" d="M694.5,502.9c-3.8,0-6.9-3.1-6.9-6.9s3.1-6.9,6.9-6.9c3.8,0,6.9,3.1,6.9,6.9S698.3,502.9,694.5,502.9z"/>
	<path class="st1" d="M740.7,410.6c-3.8,0-6.9-3.1-6.9-6.9c0-3.8,3.1-6.9,6.9-6.9c3.8,0,6.9,3.1,6.9,6.9
		C747.5,407.5,744.5,410.6,740.7,410.6z"/>
	<path class="st1" d="M740.7,433.7c-3.8,0-6.9-3.1-6.9-6.9c0-3.8,3.1-6.9,6.9-6.9c3.8,0,6.9,3.1,6.9,6.9
		C747.5,430.6,744.5,433.7,740.7,433.7z"/>
	<path class="st1" d="M740.7,456.7c-3.8,0-6.9-3.1-6.9-6.9c0-3.8,3.1-6.9,6.9-6.9c3.8,0,6.9,3.1,6.9,6.9
		C747.5,453.7,744.5,456.7,740.7,456.7z"/>
	<path class="st1" d="M740.7,479.8c-3.8,0-6.9-3.1-6.9-6.9c0-3.8,3.1-6.9,6.9-6.9c3.8,0,6.9,3.1,6.9,6.9
		C747.5,476.8,744.5,479.8,740.7,479.8z"/>
	<path class="st1" d="M740.7,502.9c-3.8,0-6.9-3.1-6.9-6.9s3.1-6.9,6.9-6.9c3.8,0,6.9,3.1,6.9,6.9S744.5,502.9,740.7,502.9z"/>
	<path class="st1" d="M786.8,526c-3.8,0-6.9-3.1-6.9-6.9c0-3.8,3.1-6.9,6.9-6.9c3.8,0,6.9,3.1,6.9,6.9
		C793.7,522.9,790.6,526,786.8,526z"/>
	<path class="st1" d="M786.8,549.1c-3.8,0-6.9-3.1-6.9-6.9c0-3.8,3.1-6.9,6.9-6.9c3.8,0,6.9,3.1,6.9,6.9
		C793.7,546,790.6,549.1,786.8,549.1z"/>
	<path class="st1" d="M786.8,572.2c-3.8,0-6.9-3.1-6.9-6.9c0-3.8,3.1-6.9,6.9-6.9c3.8,0,6.9,3.1,6.9,6.9
		C793.7,569.1,790.6,572.2,786.8,572.2z"/>
	<path class="st1" d="M786.8,595.3c-3.8,0-6.9-3.1-6.9-6.9c0-3.8,3.1-6.9,6.9-6.9c3.8,0,6.9,3.1,6.9,6.9
		C793.7,592.2,790.6,595.3,786.8,595.3z"/>
	<path class="st1" d="M763.8,514.5c-3.8,0-6.9-3.1-6.9-6.9c0-3.8,3.1-6.9,6.9-6.9c3.8,0,6.9,3.1,6.9,6.9
		C770.6,511.4,767.5,514.5,763.8,514.5z"/>
	<path class="st1" d="M763.8,537.6c-3.8,0-6.9-3.1-6.9-6.9c0-3.8,3.1-6.9,6.9-6.9c3.8,0,6.9,3.1,6.9,6.9
		C770.6,534.5,767.5,537.6,763.8,537.6z"/>
	<path class="st1" d="M763.8,560.6c-3.8,0-6.9-3.1-6.9-6.9c0-3.8,3.1-6.9,6.9-6.9c3.8,0,6.9,3.1,6.9,6.9
		C770.6,557.6,767.5,560.6,763.8,560.6z"/>
	<path class="st1" d="M763.8,583.7c-3.8,0-6.9-3.1-6.9-6.9c0-3.8,3.1-6.9,6.9-6.9c3.8,0,6.9,3.1,6.9,6.9
		C770.6,580.7,767.5,583.7,763.8,583.7z"/>
	<path class="st1" d="M717.6,514.5c-3.8,0-6.9-3.1-6.9-6.9c0-3.8,3.1-6.9,6.9-6.9c3.8,0,6.9,3.1,6.9,6.9
		C724.4,511.4,721.4,514.5,717.6,514.5z"/>
	<path class="st1" d="M717.6,537.6c-3.8,0-6.9-3.1-6.9-6.9c0-3.8,3.1-6.9,6.9-6.9c3.8,0,6.9,3.1,6.9,6.9
		C724.4,534.5,721.4,537.6,717.6,537.6z"/>
	<path class="st1" d="M717.6,560.6c-3.8,0-6.9-3.1-6.9-6.9c0-3.8,3.1-6.9,6.9-6.9c3.8,0,6.9,3.1,6.9,6.9
		C724.4,557.6,721.4,560.6,717.6,560.6z"/>
	<path class="st1" d="M717.6,583.7c-3.8,0-6.9-3.1-6.9-6.9c0-3.8,3.1-6.9,6.9-6.9c3.8,0,6.9,3.1,6.9,6.9
		C724.4,580.7,721.4,583.7,717.6,583.7z"/>
	<path class="st1" d="M694.5,526c-3.8,0-6.9-3.1-6.9-6.9c0-3.8,3.1-6.9,6.9-6.9c3.8,0,6.9,3.1,6.9,6.9
		C701.4,522.9,698.3,526,694.5,526z"/>
	<path class="st1" d="M694.5,549.1c-3.8,0-6.9-3.1-6.9-6.9c0-3.8,3.1-6.9,6.9-6.9c3.8,0,6.9,3.1,6.9,6.9
		C701.4,546,698.3,549.1,694.5,549.1z"/>
	<path class="st1" d="M694.5,572.2c-3.8,0-6.9-3.1-6.9-6.9c0-3.8,3.1-6.9,6.9-6.9c3.8,0,6.9,3.1,6.9,6.9
		C701.4,569.1,698.3,572.2,694.5,572.2z"/>
	<path class="st1" d="M694.5,595.3c-3.8,0-6.9-3.1-6.9-6.9c0-3.8,3.1-6.9,6.9-6.9c3.8,0,6.9,3.1,6.9,6.9
		C701.4,592.2,698.3,595.3,694.5,595.3z"/>
	<path class="st1" d="M740.7,526c-3.8,0-6.9-3.1-6.9-6.9c0-3.8,3.1-6.9,6.9-6.9c3.8,0,6.9,3.1,6.9,6.9
		C747.5,522.9,744.5,526,740.7,526z"/>
	<path class="st1" d="M740.7,549.1c-3.8,0-6.9-3.1-6.9-6.9c0-3.8,3.1-6.9,6.9-6.9c3.8,0,6.9,3.1,6.9,6.9
		C747.5,546,744.5,549.1,740.7,549.1z"/>
	<path class="st1" d="M740.7,572.2c-3.8,0-6.9-3.1-6.9-6.9c0-3.8,3.1-6.9,6.9-6.9c3.8,0,6.9,3.1,6.9,6.9
		C747.5,569.1,744.5,572.2,740.7,572.2z"/>
	<path class="st1" d="M740.7,595.3c-3.8,0-6.9-3.1-6.9-6.9c0-3.8,3.1-6.9,6.9-6.9c3.8,0,6.9,3.1,6.9,6.9
		C747.5,592.2,744.5,595.3,740.7,595.3z"/>
	<path class="st1" d="M671.4,422.1c-3.8,0-6.9-3.1-6.9-6.9c0-3.8,3.1-6.9,6.9-6.9c3.8,0,6.9,3.1,6.9,6.9
		C678.3,419,675.2,422.1,671.4,422.1z"/>
	<path class="st1" d="M671.4,445.2c-3.8,0-6.9-3.1-6.9-6.9c0-3.8,3.1-6.9,6.9-6.9c3.8,0,6.9,3.1,6.9,6.9
		C678.3,442.1,675.2,445.2,671.4,445.2z"/>
	<path class="st1" d="M671.4,468.3c-3.8,0-6.9-3.1-6.9-6.9c0-3.8,3.1-6.9,6.9-6.9c3.8,0,6.9,3.1,6.9,6.9
		C678.3,465.2,675.2,468.3,671.4,468.3z"/>
	<path class="st1" d="M671.4,491.4c-3.8,0-6.9-3.1-6.9-6.9c0-3.8,3.1-6.9,6.9-6.9c3.8,0,6.9,3.1,6.9,6.9
		C678.3,488.3,675.2,491.4,671.4,491.4z"/>
	<path class="st1" d="M625.2,422.1c-3.8,0-6.9-3.1-6.9-6.9c0-3.8,3.1-6.9,6.9-6.9c3.8,0,6.9,3.1,6.9,6.9
		C632.1,419,629,422.1,625.2,422.1z"/>
	<path class="st1" d="M625.2,445.2c-3.8,0-6.9-3.1-6.9-6.9c0-3.8,3.1-6.9,6.9-6.9c3.8,0,6.9,3.1,6.9,6.9
		C632.1,442.1,629,445.2,625.2,445.2z"/>
	<path class="st1" d="M625.2,468.3c-3.8,0-6.9-3.1-6.9-6.9c0-3.8,3.1-6.9,6.9-6.9c3.8,0,6.9,3.1,6.9,6.9
		C632.1,465.2,629,468.3,625.2,468.3z"/>
	<path class="st1" d="M625.2,491.4c-3.8,0-6.9-3.1-6.9-6.9c0-3.8,3.1-6.9,6.9-6.9c3.8,0,6.9,3.1,6.9,6.9
		C632.1,488.3,629,491.4,625.2,491.4z"/>
	<path class="st1" d="M602.1,410.6c-3.8,0-6.9-3.1-6.9-6.9c0-3.8,3.1-6.9,6.9-6.9c3.8,0,6.9,3.1,6.9,6.9
		C609,407.5,605.9,410.6,602.1,410.6z"/>
	<path class="st1" d="M602.1,433.7c-3.8,0-6.9-3.1-6.9-6.9c0-3.8,3.1-6.9,6.9-6.9c3.8,0,6.9,3.1,6.9,6.9
		C609,430.6,605.9,433.7,602.1,433.7z"/>
	<path class="st1" d="M602.1,456.7c-3.8,0-6.9-3.1-6.9-6.9c0-3.8,3.1-6.9,6.9-6.9c3.8,0,6.9,3.1,6.9,6.9
		C609,453.7,605.9,456.7,602.1,456.7z"/>
	<path class="st1" d="M602.1,479.8c-3.8,0-6.9-3.1-6.9-6.9c0-3.8,3.1-6.9,6.9-6.9c3.8,0,6.9,3.1,6.9,6.9
		C609,476.8,605.9,479.8,602.1,479.8z"/>
	<path class="st1" d="M602.1,502.9c-3.8,0-6.9-3.1-6.9-6.9s3.1-6.9,6.9-6.9c3.8,0,6.9,3.1,6.9,6.9S605.9,502.9,602.1,502.9z"/>
	<path class="st1" d="M648.3,410.6c-3.8,0-6.9-3.1-6.9-6.9c0-3.8,3.1-6.9,6.9-6.9c3.8,0,6.9,3.1,6.9,6.9
		C655.2,407.5,652.1,410.6,648.3,410.6z"/>
	<path class="st1" d="M648.3,433.7c-3.8,0-6.9-3.1-6.9-6.9c0-3.8,3.1-6.9,6.9-6.9c3.8,0,6.9,3.1,6.9,6.9
		C655.2,430.6,652.1,433.7,648.3,433.7z"/>
	<path class="st1" d="M648.3,456.7c-3.8,0-6.9-3.1-6.9-6.9c0-3.8,3.1-6.9,6.9-6.9c3.8,0,6.9,3.1,6.9,6.9
		C655.2,453.7,652.1,456.7,648.3,456.7z"/>
	<path class="st1" d="M648.3,479.8c-3.8,0-6.9-3.1-6.9-6.9c0-3.8,3.1-6.9,6.9-6.9c3.8,0,6.9,3.1,6.9,6.9
		C655.2,476.8,652.1,479.8,648.3,479.8z"/>
	<path class="st1" d="M648.3,502.9c-3.8,0-6.9-3.1-6.9-6.9s3.1-6.9,6.9-6.9c3.8,0,6.9,3.1,6.9,6.9S652.1,502.9,648.3,502.9z"/>
	<path class="st1" d="M671.4,514.5c-3.8,0-6.9-3.1-6.9-6.9c0-3.8,3.1-6.9,6.9-6.9c3.8,0,6.9,3.1,6.9,6.9
		C678.3,511.4,675.2,514.5,671.4,514.5z"/>
	<path class="st1" d="M671.4,537.6c-3.8,0-6.9-3.1-6.9-6.9c0-3.8,3.1-6.9,6.9-6.9c3.8,0,6.9,3.1,6.9,6.9
		C678.3,534.5,675.2,537.6,671.4,537.6z"/>
	<path class="st1" d="M671.4,560.6c-3.8,0-6.9-3.1-6.9-6.9c0-3.8,3.1-6.9,6.9-6.9c3.8,0,6.9,3.1,6.9,6.9
		C678.3,557.6,675.2,560.6,671.4,560.6z"/>
	<path class="st1" d="M671.4,583.7c-3.8,0-6.9-3.1-6.9-6.9c0-3.8,3.1-6.9,6.9-6.9c3.8,0,6.9,3.1,6.9,6.9
		C678.3,580.7,675.2,583.7,671.4,583.7z"/>
	<path class="st1" d="M625.2,514.5c-3.8,0-6.9-3.1-6.9-6.9c0-3.8,3.1-6.9,6.9-6.9c3.8,0,6.9,3.1,6.9,6.9
		C632.1,511.4,629,514.5,625.2,514.5z"/>
	<path class="st1" d="M625.2,537.6c-3.8,0-6.9-3.1-6.9-6.9c0-3.8,3.1-6.9,6.9-6.9c3.8,0,6.9,3.1,6.9,6.9
		C632.1,534.5,629,537.6,625.2,537.6z"/>
	<path class="st1" d="M625.2,560.6c-3.8,0-6.9-3.1-6.9-6.9c0-3.8,3.1-6.9,6.9-6.9c3.8,0,6.9,3.1,6.9,6.9
		C632.1,557.6,629,560.6,625.2,560.6z"/>
	<path class="st1" d="M625.2,583.7c-3.8,0-6.9-3.1-6.9-6.9c0-3.8,3.1-6.9,6.9-6.9c3.8,0,6.9,3.1,6.9,6.9
		C632.1,580.7,629,583.7,625.2,583.7z"/>
	<path class="st1" d="M602.1,526c-3.8,0-6.9-3.1-6.9-6.9c0-3.8,3.1-6.9,6.9-6.9c3.8,0,6.9,3.1,6.9,6.9
		C609,522.9,605.9,526,602.1,526z"/>
	<path class="st1" d="M602.1,549.1c-3.8,0-6.9-3.1-6.9-6.9c0-3.8,3.1-6.9,6.9-6.9c3.8,0,6.9,3.1,6.9,6.9
		C609,546,605.9,549.1,602.1,549.1z"/>
	<path class="st1" d="M602.1,572.2c-3.8,0-6.9-3.1-6.9-6.9c0-3.8,3.1-6.9,6.9-6.9c3.8,0,6.9,3.1,6.9,6.9
		C609,569.1,605.9,572.2,602.1,572.2z"/>
	<circle class="st1" cx="602.1" cy="588.4" r="6.9"/>
	<path class="st1" d="M648.3,526c-3.8,0-6.9-3.1-6.9-6.9c0-3.8,3.1-6.9,6.9-6.9c3.8,0,6.9,3.1,6.9,6.9
		C655.2,522.9,652.1,526,648.3,526z"/>
	<path class="st1" d="M648.3,549.1c-3.8,0-6.9-3.1-6.9-6.9c0-3.8,3.1-6.9,6.9-6.9c3.8,0,6.9,3.1,6.9,6.9
		C655.2,546,652.1,549.1,648.3,549.1z"/>
	<path class="st1" d="M648.3,572.2c-3.8,0-6.9-3.1-6.9-6.9c0-3.8,3.1-6.9,6.9-6.9c3.8,0,6.9,3.1,6.9,6.9
		C655.2,569.1,652.1,572.2,648.3,572.2z"/>
	<path class="st1" d="M648.3,595.3c-3.8,0-6.9-3.1-6.9-6.9c0-3.8,3.1-6.9,6.9-6.9c3.8,0,6.9,3.1,6.9,6.9
		C655.2,592.2,652.1,595.3,648.3,595.3z"/>
</g>
<rect x="992.1" y="0" class="st2" width="198.4" height="198.4"/>
<polygon class="st3" points="1190.6,0 992.1,0 992.1,198.4 "/>
<rect x="1091.3" y="0" class="st0" width="99.2" height="99.2"/>
<polygon class="st1" points="992.1,0 992.1,198.4 1190.6,198.4 "/>
<rect x="595.3" y="198.4" class="st3" width="198.4" height="198.4"/>
<rect x="595.3" y="198.4" class="st1" width="99.2" height="99.2"/>
<polygon class="st0" points="694.5,198.4 694.5,297.6 793.7,297.6 "/>
<rect x="793.7" y="198.4" class="st1" width="198.4" height="396.8"/>
<rect x="793.7" y="496" class="st3" width="198.4" height="99.3"/>
<ellipse transform="matrix(0.9987 -5.121699e-02 5.121699e-02 0.9987 -13.8118 56.2857)" class="st3" cx="1091.3" cy="297.6" rx="99.2" ry="99.2"/>
<path class="st0" d="M892.9,595.3c-54.8,0-99.2-44.4-99.2-99.2c0-54.8,44.4-99.2,99.2-99.2c54.8,0,99.2,44.4,99.2,99.2
	C992.1,550.9,947.7,595.3,892.9,595.3z"/>
<path class="st2" d="M892.9,545.7c-27.4,0-49.6-22.2-49.6-49.6c0-27.4,22.2-49.6,49.6-49.6c27.4,0,49.6,22.2,49.6,49.6
	C942.5,523.5,920.3,545.7,892.9,545.7z"/>
<path class="st1" d="M892.9,545.7c-27.4,0-49.6-22.2-49.6-49.6c0-27.4,22.2-49.6,49.6-49.6V545.7z"/>
<path class="st2" d="M892.9,297.6c54.8,0,99.2-44.4,99.2-99.2v0H793.7c0,0,0,0,0,0C793.7,253.2,838.1,297.6,892.9,297.6z"/>
<path class="st2" d="M793.7,0C684.1,0,595.3,88.8,595.3,198.3l0,0.1l396.8,0l0,0C992.1,88.8,903.3,0,793.7,0z"/>
<path class="st0" d="M793.7,99.2c-54.8,0-99.2,44.4-99.2,99.2l0,0l99.2,0L793.7,99.2z"/>
<path class="st0" d="M892.9,297.6c54.8,0,99.2-44.4,99.2-99.2l0,0l-99.2,0L892.9,297.6z"/>
<path class="st1" d="M793.7,99.2c54.8,0,99.2,44.4,99.2,99.2l0,0l-99.2,0L793.7,99.2z"/>
<path class="st2" d="M644.9,347.2c27.4,0,49.6-22.2,49.6-49.6v0h-99.2c0,0,0,0,0,0C595.3,325,617.5,347.2,644.9,347.2z"/>
<path class="st3" d="M942.5,148.8c-27.4,0-49.6,22.2-49.6,49.6v0h99.2v0C992.1,171,969.9,148.8,942.5,148.8z"/>
<path class="st1" d="M1140.9,49.6c-27.4,0-49.6,22.2-49.6,49.6v0h99.2c0,0,0,0,0,0C1190.6,71.8,1168.3,49.6,1140.9,49.6z"/>
<g>
	<polygon class="st3" points="793.7,144.3 793.7,152.8 839.3,198.4 847.8,198.4 	"/>
	<polygon class="st3" points="793.7,182.7 793.7,191.2 800.9,198.4 809.4,198.4 	"/>
	<polygon class="st3" points="793.7,163.5 793.7,172 820.1,198.4 828.6,198.4 	"/>
	<polygon class="st3" points="793.7,125.1 793.7,133.6 858.5,198.4 867,198.4 	"/>
	<path class="st3" d="M834,107.7c-4.3-1.9-8.7-3.5-13.3-4.8l68.5,68.5c-1.3-4.6-2.9-9-4.8-13.3L834,107.7z"/>
	<path class="st3" d="M807.1,100.1c-3.1-0.4-6.2-0.7-9.3-0.8l95,95c-0.1-3.1-0.4-6.2-0.8-9.3L807.1,100.1z"/>
	<polygon class="st3" points="793.7,105.9 793.7,114.4 877.7,198.4 886.2,198.4 	"/>
</g>
<path class="st1" d="M1145.8,396.9h8.5l36.2,36.2v8.5L1145.8,396.9z M1190.6,480v-8.5l-74.7-74.7h-8.5L1190.6,480z M1190.6,460.8
	v-8.5l-55.5-55.5h-8.5L1190.6,460.8z M1190.6,403.2v-6.3h-6.3L1190.6,403.2z M1190.6,422.4v-8.5l-17-17h-8.5L1190.6,422.4z
	 M1190.6,499.2v-8.5l-93.9-93.9h-8.5L1190.6,499.2z M1190.6,595.3v-8.5l-189.9-189.9h-8.5L1190.6,595.3z M1190.6,576.1v-8.5
	l-170.7-170.7h-8.5L1190.6,576.1z M1190.6,518.4v-8.5l-113.1-113.1h-8.5L1190.6,518.4z M1190.6,556.9v-8.5L1039,396.9h-8.5
	L1190.6,556.9z M1190.6,537.6v-8.5l-132.3-132.3h-8.5L1190.6,537.6z"/>
<g>
	<path class="st2" d="M892.9,480v-8.5l-45.1,45.1c0.9,1.9,1.9,3.8,3,5.5L892.9,480z"/>
	<path class="st2" d="M843.6,501.6c0.3,2.4,0.7,4.8,1.3,7.2l48-48v-8.5L843.6,501.6z"/>
	<path class="st2" d="M892.9,499.2v-8.5l-37.6,37.6c1.3,1.5,2.7,3,4.2,4.3L892.9,499.2z"/>
	<path class="st2" d="M887.8,446.7c-3.8,0.4-7.4,1.2-10.9,2.4L846,480c-1.2,3.5-2,7.1-2.4,10.9L887.8,446.7z"/>
	<path class="st2" d="M892.9,518.4v-8.5l-27.4,27.4c1.7,1.1,3.5,2.2,5.4,3.1L892.9,518.4z"/>
	<path class="st2" d="M892.9,537.6v-8.5l-14.4,14.4c2.2,0.7,4.6,1.2,6.9,1.6L892.9,537.6z"/>
</g>
<g>
	<polygon class="st2" points="992.1,496.1 998.4,496.1 992.1,502.4 	"/>
	<polygon class="st2" points="1072.1,595.3 1063.6,595.3 1091.3,567.6 1091.3,576.1 	"/>
	<polygon class="st2" points="1091.3,595.3 1082.9,595.3 1091.3,586.8 1091.3,595.3 	"/>
	<polygon class="st2" points="1091.3,509.9 1091.3,518.4 1014.5,595.3 1006,595.3 	"/>
	<polygon class="st2" points="1052.9,595.3 1044.4,595.3 1091.3,548.4 1091.3,556.8 	"/>
	<polygon class="st2" points="1033.7,595.3 1025.2,595.3 1091.3,529.2 1091.3,537.6 	"/>
	<polygon class="st2" points="992.1,513.1 1009.2,496.1 1017.6,496.1 992.1,521.6 	"/>
	<polygon class="st2" points="995.3,595.3 992.1,595.3 992.1,589.9 1086,496.1 1091.3,496.1 1091.3,499.2 	"/>
	<polygon class="st2" points="992.1,570.7 1066.8,496.1 1075.3,496.1 992.1,579.2 	"/>
	<polygon class="st2" points="992.1,532.3 1028.4,496.1 1036.9,496.1 992.1,540.8 	"/>
	<polygon class="st2" points="992.1,551.5 1047.6,496.1 1056.1,496.1 992.1,560 	"/>
</g>
<g>
	<polygon class="st2" points="793.7,377.6 793.7,369.2 779.8,383 784.1,387.2 	"/>
	<polygon class="st2" points="793.7,358.4 793.7,349.9 770.2,373.4 774.5,377.6 	"/>
	<polygon class="st2" points="793.7,396.8 793.7,388.4 789.5,392.6 793.7,396.8 	"/>
	<polygon class="st2" points="793.7,339.2 793.7,330.7 760.6,363.8 764.9,368 	"/>
	<polygon class="st2" points="755.3,358.4 793.7,320 793.7,311.5 751,354.2 	"/>
	<polygon class="st2" points="707.2,310.4 720,297.6 711.5,297.6 703,306.2 	"/>
	<polygon class="st2" points="697.6,300.8 700.8,297.6 694.5,297.6 694.5,297.6 	"/>
	<polygon class="st2" points="716.9,320 739.2,297.6 730.7,297.6 712.6,315.8 	"/>
	<polygon class="st2" points="726.5,329.6 758.4,297.6 749.9,297.6 722.2,325.4 	"/>
	<polygon class="st2" points="745.7,348.8 793.7,300.8 793.7,297.6 788.4,297.6 741.4,344.6 	"/>
	<polygon class="st2" points="736.1,339.2 777.6,297.6 769.2,297.6 731.8,335 	"/>
</g>
<g>
	<path class="st1" d="M1137.5,221.5c-3.8,0-6.9,3.1-6.9,6.9c0,3.8,3.1,6.9,6.9,6.9c3.8,0,6.9-3.1,6.9-6.9
		C1144.4,224.6,1141.3,221.5,1137.5,221.5z"/>
	<path class="st1" d="M1167.5,286.1c0-3.8-3.1-6.9-6.9-6.9c-3.8,0-6.9,3.1-6.9,6.9c0,3.8,3.1,6.9,6.9,6.9
		C1164.4,293,1167.5,289.9,1167.5,286.1z"/>
	<path class="st1" d="M1061.4,286.1c0,3.8,3.1,6.9,6.9,6.9c3.8,0,6.9-3.1,6.9-6.9c0-3.8-3.1-6.9-6.9-6.9
		C1064.5,279.2,1061.4,282.3,1061.4,286.1z"/>
	<path class="st1" d="M1137.5,267.7c-3.8,0-6.9,3.1-6.9,6.9c0,3.8,3.1,6.9,6.9,6.9c3.8,0,6.9-3.1,6.9-6.9
		C1144.4,270.8,1141.3,267.7,1137.5,267.7z"/>
	<path class="st1" d="M1137.5,290.8c-3.8,0-6.9,3.1-6.9,6.9v0h13.7v0C1144.4,293.8,1141.3,290.8,1137.5,290.8z"/>
	<path class="st1" d="M1167.5,239.9c0-3.8-3.1-6.9-6.9-6.9c-3.8,0-6.9,3.1-6.9,6.9c0,3.8,3.1,6.9,6.9,6.9
		C1164.4,246.8,1167.5,243.7,1167.5,239.9z"/>
	<path class="st1" d="M1137.5,244.6c-3.8,0-6.9,3.1-6.9,6.9c0,3.8,3.1,6.9,6.9,6.9c3.8,0,6.9-3.1,6.9-6.9
		C1144.4,247.7,1141.3,244.6,1137.5,244.6z"/>
	<path class="st1" d="M1167.5,263c0-3.8-3.1-6.9-6.9-6.9c-3.8,0-6.9,3.1-6.9,6.9c0,3.8,3.1,6.9,6.9,6.9
		C1164.4,269.9,1167.5,266.8,1167.5,263z"/>
	<path class="st1" d="M1107.6,263c0,3.8,3.1,6.9,6.9,6.9c3.8,0,6.9-3.1,6.9-6.9c0-3.8-3.1-6.9-6.9-6.9
		C1110.6,256.1,1107.6,259.2,1107.6,263z"/>
	<path class="st1" d="M1107.6,239.9c0,3.8,3.1,6.9,6.9,6.9c3.8,0,6.9-3.1,6.9-6.9c0-3.8-3.1-6.9-6.9-6.9
		C1110.6,233.1,1107.6,236.1,1107.6,239.9z"/>
	<path class="st1" d="M1061.4,239.9c0,3.8,3.1,6.9,6.9,6.9c3.8,0,6.9-3.1,6.9-6.9c0-3.8-3.1-6.9-6.9-6.9
		C1064.5,233.1,1061.4,236.1,1061.4,239.9z"/>
	<path class="st1" d="M1107.6,286.1c0,3.8,3.1,6.9,6.9,6.9c3.8,0,6.9-3.1,6.9-6.9c0-3.8-3.1-6.9-6.9-6.9
		C1110.6,279.2,1107.6,282.3,1107.6,286.1z"/>
	<path class="st1" d="M1091.3,258.3c3.8,0,6.9-3.1,6.9-6.9c0-3.8-3.1-6.9-6.9-6.9c-3.8,0-6.9,3.1-6.9,6.9
		C1084.5,255.2,1087.5,258.3,1091.3,258.3z"/>
	<path class="st1" d="M1091.3,221.5c-3.8,0-6.9,3.1-6.9,6.9c0,3.8,3.1,6.9,6.9,6.9c3.8,0,6.9-3.1,6.9-6.9
		C1098.2,224.6,1095.1,221.5,1091.3,221.5z"/>
	<path class="st1" d="M1091.3,281.4c3.8,0,6.9-3.1,6.9-6.9c0-3.8-3.1-6.9-6.9-6.9c-3.8,0-6.9,3.1-6.9,6.9
		C1084.5,278.3,1087.5,281.4,1091.3,281.4z"/>
	<path class="st1" d="M1114.4,210c-3.8,0-6.9,3.1-6.9,6.9c0,3.8,3.1,6.9,6.9,6.9c3.8,0,6.9-3.1,6.9-6.9
		C1121.3,213,1118.2,210,1114.4,210z"/>
	<path class="st1" d="M1061.4,263c0,3.8,3.1,6.9,6.9,6.9c3.8,0,6.9-3.1,6.9-6.9c0-3.8-3.1-6.9-6.9-6.9
		C1064.5,256.1,1061.4,259.2,1061.4,263z"/>
	<path class="st1" d="M1084.5,297.6h13.7v0c0-3.8-3.1-6.9-6.9-6.9C1087.5,290.8,1084.5,293.8,1084.5,297.6L1084.5,297.6z"/>
	<path class="st1" d="M1045.2,212.1c3.3,0,6.1-2.4,6.7-5.6c-3.3,1.4-6.6,3.1-9.7,4.9C1043.1,211.9,1044.1,212.1,1045.2,212.1z"/>
	<path class="st1" d="M1137.5,212.1c1.1,0,2.1-0.3,3-0.7c-3.1-1.8-6.4-3.4-9.7-4.9C1131.4,209.8,1134.2,212.1,1137.5,212.1z"/>
	<path class="st1" d="M1084.5,205.3c0,3.8,3.1,6.9,6.9,6.9c3.8,0,6.9-3.1,6.9-6.9c0-3.8-3.1-6.9-6.9-6.9
		C1087.5,198.4,1084.5,201.5,1084.5,205.3z"/>
	<path class="st1" d="M1176.8,251.5c0,3.3,2.4,6.1,5.6,6.7c-1.4-3.3-3.1-6.6-4.9-9.7C1177.1,249.4,1176.8,250.4,1176.8,251.5z"/>
	<path class="st1" d="M1183.7,267.7c-3.8,0-6.9,3.1-6.9,6.9c0,3.8,3.1,6.9,6.9,6.9c2,0,3.9-0.9,5.1-2.3c-0.7-3.7-1.6-7.4-2.7-11
		C1185.3,267.8,1184.5,267.7,1183.7,267.7z"/>
	<path class="st1" d="M1068.3,210c-3.8,0-6.9,3.1-6.9,6.9c0,3.8,3.1,6.9,6.9,6.9c3.8,0,6.9-3.1,6.9-6.9
		C1075.1,213,1072,210,1068.3,210z"/>
	<path class="st1" d="M999,281.4c3.8,0,6.9-3.1,6.9-6.9c0-3.8-3.1-6.9-6.9-6.9c-0.8,0-1.7,0.2-2.4,0.4c-1.1,3.6-2,7.2-2.7,11
		C995.1,280.5,996.9,281.4,999,281.4z"/>
	<path class="st1" d="M1005.9,251.5c0-1.1-0.3-2.1-0.7-3c-1.8,3.1-3.4,6.4-4.9,9.7C1003.5,257.6,1005.9,254.8,1005.9,251.5z"/>
	<path class="st1" d="M1005.9,297.6L1005.9,297.6c0-3.8-3.1-6.9-6.9-6.9c-3.8,0-6.9,3.1-6.9,6.9v0H1005.9z"/>
	<path class="st1" d="M1015.2,239.9c0,3.8,3.1,6.9,6.9,6.9c3.8,0,6.9-3.1,6.9-6.9c0-3.8-3.1-6.9-6.9-6.9
		C1018.3,233.1,1015.2,236.1,1015.2,239.9z"/>
	<path class="st1" d="M1045.2,258.3c3.8,0,6.9-3.1,6.9-6.9c0-3.8-3.1-6.9-6.9-6.9c-3.8,0-6.9,3.1-6.9,6.9
		C1038.3,255.2,1041.4,258.3,1045.2,258.3z"/>
	<path class="st1" d="M1015.2,263c0,3.8,3.1,6.9,6.9,6.9c3.8,0,6.9-3.1,6.9-6.9c0-3.8-3.1-6.9-6.9-6.9
		C1018.3,256.1,1015.2,259.2,1015.2,263z"/>
	<path class="st1" d="M1045.2,235.2c3.8,0,6.9-3.1,6.9-6.9c0-3.8-3.1-6.9-6.9-6.9c-3.8,0-6.9,3.1-6.9,6.9
		C1038.3,232.2,1041.4,235.2,1045.2,235.2z"/>
	<path class="st1" d="M1015.2,286.1c0,3.8,3.1,6.9,6.9,6.9c3.8,0,6.9-3.1,6.9-6.9c0-3.8-3.1-6.9-6.9-6.9
		C1018.3,279.2,1015.2,282.3,1015.2,286.1z"/>
	<path class="st1" d="M1045.2,281.4c3.8,0,6.9-3.1,6.9-6.9c0-3.8-3.1-6.9-6.9-6.9c-3.8,0-6.9,3.1-6.9,6.9
		C1038.3,278.3,1041.4,281.4,1045.2,281.4z"/>
	<path class="st1" d="M1038.3,297.6h13.7v0c0-3.8-3.1-6.9-6.9-6.9C1041.4,290.8,1038.3,293.8,1038.3,297.6L1038.3,297.6z"/>
	<path class="st1" d="M1183.7,290.8c-3.8,0-6.9,3.1-6.9,6.9v0h13.7c0,0,0-0.1,0-0.1C1190.5,293.8,1187.5,290.8,1183.7,290.8z"/>
</g>
<rect x="892.9" y="297.6" class="st2" width="99.2" height="99.2"/>
<path class="st3" d="M892.9,396.9c54.8,0,99.2-44.4,99.2-99.2l0,0l-99.2,0L892.9,396.9z"/>
<path class="st3" d="M793.7,99.2c54.8,0,99.2-44.4,99.2-99.2l0,0l-99.2,0L793.7,99.2z"/>
<rect x="1190.6" y="0" class="st0" width="595.3" height="595.3"/>
<g>
	<path class="st1" d="M1375.3,191.6c0-3.8,3.1-6.9,6.9-6.9c3.8,0,6.9,3.1,6.9,6.9c0,3.8-3.1,6.9-6.9,6.9
		C1378.3,198.4,1375.3,195.4,1375.3,191.6z"/>
	<path class="st1" d="M1352.2,191.6c0-3.8,3.1-6.9,6.9-6.9c3.8,0,6.9,3.1,6.9,6.9c0,3.8-3.1,6.9-6.9,6.9
		C1355.2,198.4,1352.2,195.4,1352.2,191.6z"/>
	<path class="st1" d="M1329.1,191.6c0-3.8,3.1-6.9,6.9-6.9c3.8,0,6.9,3.1,6.9,6.9c0,3.8-3.1,6.9-6.9,6.9
		C1332.2,198.4,1329.1,195.4,1329.1,191.6z"/>
	<path class="st1" d="M1306,191.6c0-3.8,3.1-6.9,6.9-6.9c3.8,0,6.9,3.1,6.9,6.9c0,3.8-3.1,6.9-6.9,6.9
		C1309.1,198.4,1306,195.4,1306,191.6z"/>
	<path class="st1" d="M1282.9,191.6c0-3.8,3.1-6.9,6.9-6.9c3.8,0,6.9,3.1,6.9,6.9c0,3.8-3.1,6.9-6.9,6.9
		C1286,198.4,1282.9,195.4,1282.9,191.6z"/>
	<path class="st1" d="M1363.7,168.5c0-3.8,3.1-6.9,6.9-6.9c3.8,0,6.9,3.1,6.9,6.9c0,3.8-3.1,6.9-6.9,6.9
		C1366.8,175.3,1363.7,172.3,1363.7,168.5z"/>
	<path class="st1" d="M1340.6,168.5c0-3.8,3.1-6.9,6.9-6.9c3.8,0,6.9,3.1,6.9,6.9c0,3.8-3.1,6.9-6.9,6.9
		C1343.7,175.3,1340.6,172.3,1340.6,168.5z"/>
	<path class="st1" d="M1317.5,168.5c0-3.8,3.1-6.9,6.9-6.9c3.8,0,6.9,3.1,6.9,6.9c0,3.8-3.1,6.9-6.9,6.9
		C1320.6,175.3,1317.5,172.3,1317.5,168.5z"/>
	<path class="st1" d="M1294.4,168.5c0-3.8,3.1-6.9,6.9-6.9c3.8,0,6.9,3.1,6.9,6.9c0,3.8-3.1,6.9-6.9,6.9
		C1297.5,175.3,1294.4,172.3,1294.4,168.5z"/>
	<path class="st1" d="M1363.7,122.3c0-3.8,3.1-6.9,6.9-6.9c3.8,0,6.9,3.1,6.9,6.9c0,3.8-3.1,6.9-6.9,6.9
		C1366.8,129.2,1363.7,126.1,1363.7,122.3z"/>
	<path class="st1" d="M1340.6,122.3c0-3.8,3.1-6.9,6.9-6.9c3.8,0,6.9,3.1,6.9,6.9c0,3.8-3.1,6.9-6.9,6.9
		C1343.7,129.2,1340.6,126.1,1340.6,122.3z"/>
	<path class="st1" d="M1317.5,122.3c0-3.8,3.1-6.9,6.9-6.9c3.8,0,6.9,3.1,6.9,6.9c0,3.8-3.1,6.9-6.9,6.9
		C1320.6,129.2,1317.5,126.1,1317.5,122.3z"/>
	<path class="st1" d="M1294.4,122.3c0-3.8,3.1-6.9,6.9-6.9c3.8,0,6.9,3.1,6.9,6.9c0,3.8-3.1,6.9-6.9,6.9
		C1297.5,129.2,1294.4,126.1,1294.4,122.3z"/>
	<path class="st1" d="M1375.3,99.2c0-3.8,3.1-6.9,6.9-6.9c3.8,0,6.9,3.1,6.9,6.9c0,3.8-3.1,6.9-6.9,6.9
		C1378.3,106.1,1375.3,103,1375.3,99.2z"/>
	<path class="st1" d="M1352.2,99.2c0-3.8,3.1-6.9,6.9-6.9c3.8,0,6.9,3.1,6.9,6.9c0,3.8-3.1,6.9-6.9,6.9
		C1355.2,106.1,1352.2,103,1352.2,99.2z"/>
	<path class="st1" d="M1329.1,99.2c0-3.8,3.1-6.9,6.9-6.9c3.8,0,6.9,3.1,6.9,6.9c0,3.8-3.1,6.9-6.9,6.9
		C1332.2,106.1,1329.1,103,1329.1,99.2z"/>
	<path class="st1" d="M1306,99.2c0-3.8,3.1-6.9,6.9-6.9c3.8,0,6.9,3.1,6.9,6.9c0,3.8-3.1,6.9-6.9,6.9
		C1309.1,106.1,1306,103,1306,99.2z"/>
	<path class="st1" d="M1282.9,99.2c0-3.8,3.1-6.9,6.9-6.9c3.8,0,6.9,3.1,6.9,6.9c0,3.8-3.1,6.9-6.9,6.9
		C1286,106.1,1282.9,103,1282.9,99.2z"/>
	<path class="st1" d="M1375.3,145.4c0-3.8,3.1-6.9,6.9-6.9c3.8,0,6.9,3.1,6.9,6.9c0,3.8-3.1,6.9-6.9,6.9
		C1378.3,152.2,1375.3,149.2,1375.3,145.4z"/>
	<path class="st1" d="M1352.2,145.4c0-3.8,3.1-6.9,6.9-6.9c3.8,0,6.9,3.1,6.9,6.9c0,3.8-3.1,6.9-6.9,6.9
		C1355.2,152.2,1352.2,149.2,1352.2,145.4z"/>
	<path class="st1" d="M1329.1,145.4c0-3.8,3.1-6.9,6.9-6.9c3.8,0,6.9,3.1,6.9,6.9c0,3.8-3.1,6.9-6.9,6.9
		C1332.2,152.2,1329.1,149.2,1329.1,145.4z"/>
	<path class="st1" d="M1306,145.4c0-3.8,3.1-6.9,6.9-6.9c3.8,0,6.9,3.1,6.9,6.9c0,3.8-3.1,6.9-6.9,6.9
		C1309.1,152.2,1306,149.2,1306,145.4z"/>
	<path class="st1" d="M1282.9,145.4c0-3.8,3.1-6.9,6.9-6.9c3.8,0,6.9,3.1,6.9,6.9c0,3.8-3.1,6.9-6.9,6.9
		C1286,152.2,1282.9,149.2,1282.9,145.4z"/>
	<path class="st1" d="M1259.8,191.6c0-3.8,3.1-6.9,6.9-6.9c3.8,0,6.9,3.1,6.9,6.9c0,3.8-3.1,6.9-6.9,6.9
		C1262.9,198.4,1259.8,195.4,1259.8,191.6z"/>
	<path class="st1" d="M1236.7,191.6c0-3.8,3.1-6.9,6.9-6.9c3.8,0,6.9,3.1,6.9,6.9c0,3.8-3.1,6.9-6.9,6.9
		C1239.8,198.4,1236.7,195.4,1236.7,191.6z"/>
	<path class="st1" d="M1213.6,191.6c0-3.8,3.1-6.9,6.9-6.9c3.8,0,6.9,3.1,6.9,6.9c0,3.8-3.1,6.9-6.9,6.9
		C1216.7,198.4,1213.6,195.4,1213.6,191.6z"/>
	<path class="st1" d="M1190.6,191.6c0-3.8,3.1-6.9,6.9-6.9c3.8,0,6.9,3.1,6.9,6.9c0,3.8-3.1,6.9-6.9,6.9
		C1193.6,198.4,1190.6,195.4,1190.6,191.6z"/>
	<path class="st1" d="M1271.4,168.5c0-3.8,3.1-6.9,6.9-6.9c3.8,0,6.9,3.1,6.9,6.9c0,3.8-3.1,6.9-6.9,6.9
		C1274.4,175.3,1271.4,172.3,1271.4,168.5z"/>
	<path class="st1" d="M1248.3,168.5c0-3.8,3.1-6.9,6.9-6.9c3.8,0,6.9,3.1,6.9,6.9c0,3.8-3.1,6.9-6.9,6.9
		C1251.3,175.3,1248.3,172.3,1248.3,168.5z"/>
	<path class="st1" d="M1225.2,168.5c0-3.8,3.1-6.9,6.9-6.9c3.8,0,6.9,3.1,6.9,6.9c0,3.8-3.1,6.9-6.9,6.9
		C1228.3,175.3,1225.2,172.3,1225.2,168.5z"/>
	<path class="st1" d="M1202.1,168.5c0-3.8,3.1-6.9,6.9-6.9c3.8,0,6.9,3.1,6.9,6.9c0,3.8-3.1,6.9-6.9,6.9
		C1205.2,175.3,1202.1,172.3,1202.1,168.5z"/>
	<path class="st1" d="M1271.4,122.3c0-3.8,3.1-6.9,6.9-6.9c3.8,0,6.9,3.1,6.9,6.9c0,3.8-3.1,6.9-6.9,6.9
		C1274.4,129.2,1271.4,126.1,1271.4,122.3z"/>
	<path class="st1" d="M1248.3,122.3c0-3.8,3.1-6.9,6.9-6.9c3.8,0,6.9,3.1,6.9,6.9c0,3.8-3.1,6.9-6.9,6.9
		C1251.3,129.2,1248.3,126.1,1248.3,122.3z"/>
	<path class="st1" d="M1225.2,122.3c0-3.8,3.1-6.9,6.9-6.9c3.8,0,6.9,3.1,6.9,6.9c0,3.8-3.1,6.9-6.9,6.9
		C1228.3,129.2,1225.2,126.1,1225.2,122.3z"/>
	<path class="st1" d="M1202.1,122.3c0-3.8,3.1-6.9,6.9-6.9c3.8,0,6.9,3.1,6.9,6.9c0,3.8-3.1,6.9-6.9,6.9
		C1205.2,129.2,1202.1,126.1,1202.1,122.3z"/>
	<path class="st1" d="M1259.8,99.2c0-3.8,3.1-6.9,6.9-6.9c3.8,0,6.9,3.1,6.9,6.9c0,3.8-3.1,6.9-6.9,6.9
		C1262.9,106.1,1259.8,103,1259.8,99.2z"/>
	<path class="st1" d="M1236.7,99.2c0-3.8,3.1-6.9,6.9-6.9c3.8,0,6.9,3.1,6.9,6.9c0,3.8-3.1,6.9-6.9,6.9
		C1239.8,106.1,1236.7,103,1236.7,99.2z"/>
	<path class="st1" d="M1213.6,99.2c0-3.8,3.1-6.9,6.9-6.9c3.8,0,6.9,3.1,6.9,6.9c0,3.8-3.1,6.9-6.9,6.9
		C1216.7,106.1,1213.6,103,1213.6,99.2z"/>
	<path class="st1" d="M1190.6,99.2c0-3.8,3.1-6.9,6.9-6.9c3.8,0,6.9,3.1,6.9,6.9c0,3.8-3.1,6.9-6.9,6.9
		C1193.6,106.1,1190.6,103,1190.6,99.2z"/>
	<path class="st1" d="M1259.8,145.4c0-3.8,3.1-6.9,6.9-6.9c3.8,0,6.9,3.1,6.9,6.9c0,3.8-3.1,6.9-6.9,6.9
		C1262.9,152.2,1259.8,149.2,1259.8,145.4z"/>
	<path class="st1" d="M1236.7,145.4c0-3.8,3.1-6.9,6.9-6.9c3.8,0,6.9,3.1,6.9,6.9c0,3.8-3.1,6.9-6.9,6.9
		C1239.8,152.2,1236.7,149.2,1236.7,145.4z"/>
	<path class="st1" d="M1213.6,145.4c0-3.8,3.1-6.9,6.9-6.9c3.8,0,6.9,3.1,6.9,6.9c0,3.8-3.1,6.9-6.9,6.9
		C1216.7,152.2,1213.6,149.2,1213.6,145.4z"/>
	<path class="st1" d="M1190.6,145.4c0-3.8,3.1-6.9,6.9-6.9c3.8,0,6.9,3.1,6.9,6.9c0,3.8-3.1,6.9-6.9,6.9
		C1193.6,152.2,1190.6,149.2,1190.6,145.4z"/>
	<path class="st1" d="M1363.7,76.1c0-3.8,3.1-6.9,6.9-6.9c3.8,0,6.9,3.1,6.9,6.9c0,3.8-3.1,6.9-6.9,6.9
		C1366.8,83,1363.7,79.9,1363.7,76.1z"/>
	<path class="st1" d="M1340.6,76.1c0-3.8,3.1-6.9,6.9-6.9c3.8,0,6.9,3.1,6.9,6.9c0,3.8-3.1,6.9-6.9,6.9
		C1343.7,83,1340.6,79.9,1340.6,76.1z"/>
	<path class="st1" d="M1317.5,76.1c0-3.8,3.1-6.9,6.9-6.9c3.8,0,6.9,3.1,6.9,6.9c0,3.8-3.1,6.9-6.9,6.9
		C1320.6,83,1317.5,79.9,1317.5,76.1z"/>
	<path class="st1" d="M1294.4,76.1c0-3.8,3.1-6.9,6.9-6.9c3.8,0,6.9,3.1,6.9,6.9c0,3.8-3.1,6.9-6.9,6.9
		C1297.5,83,1294.4,79.9,1294.4,76.1z"/>
	<path class="st1" d="M1363.7,29.9c0-3.8,3.1-6.9,6.9-6.9c3.8,0,6.9,3.1,6.9,6.9c0,3.8-3.1,6.9-6.9,6.9
		C1366.8,36.8,1363.7,33.7,1363.7,29.9z"/>
	<path class="st1" d="M1340.6,29.9c0-3.8,3.1-6.9,6.9-6.9c3.8,0,6.9,3.1,6.9,6.9c0,3.8-3.1,6.9-6.9,6.9
		C1343.7,36.8,1340.6,33.7,1340.6,29.9z"/>
	<path class="st1" d="M1317.5,29.9c0-3.8,3.1-6.9,6.9-6.9c3.8,0,6.9,3.1,6.9,6.9c0,3.8-3.1,6.9-6.9,6.9
		C1320.6,36.8,1317.5,33.7,1317.5,29.9z"/>
	<path class="st1" d="M1294.4,29.9c0-3.8,3.1-6.9,6.9-6.9c3.8,0,6.9,3.1,6.9,6.9c0,3.8-3.1,6.9-6.9,6.9
		C1297.5,36.8,1294.4,33.7,1294.4,29.9z"/>
	<path class="st1" d="M1375.3,6.9c0-3.8,3.1-6.9,6.9-6.9c3.8,0,6.9,3.1,6.9,6.9c0,3.8-3.1,6.9-6.9,6.9
		C1378.3,13.7,1375.3,10.6,1375.3,6.9z"/>
	<path class="st1" d="M1352.2,6.9c0-3.8,3.1-6.9,6.9-6.9c3.8,0,6.9,3.1,6.9,6.9c0,3.8-3.1,6.9-6.9,6.9
		C1355.2,13.7,1352.2,10.6,1352.2,6.9z"/>
	<path class="st1" d="M1329.1,6.9c0-3.8,3.1-6.9,6.9-6.9c3.8,0,6.9,3.1,6.9,6.9c0,3.8-3.1,6.9-6.9,6.9
		C1332.2,13.7,1329.1,10.6,1329.1,6.9z"/>
	<path class="st1" d="M1306,6.9c0-3.8,3.1-6.9,6.9-6.9c3.8,0,6.9,3.1,6.9,6.9c0,3.8-3.1,6.9-6.9,6.9C1309.1,13.7,1306,10.6,1306,6.9
		z"/>
	<path class="st1" d="M1282.9,6.9c0-3.8,3.1-6.9,6.9-6.9c3.8,0,6.9,3.1,6.9,6.9c0,3.8-3.1,6.9-6.9,6.9
		C1286,13.7,1282.9,10.6,1282.9,6.9z"/>
	<path class="st1" d="M1375.3,53c0-3.8,3.1-6.9,6.9-6.9c3.8,0,6.9,3.1,6.9,6.9c0,3.8-3.1,6.9-6.9,6.9
		C1378.3,59.9,1375.3,56.8,1375.3,53z"/>
	<path class="st1" d="M1352.2,53c0-3.8,3.1-6.9,6.9-6.9c3.8,0,6.9,3.1,6.9,6.9c0,3.8-3.1,6.9-6.9,6.9
		C1355.2,59.9,1352.2,56.8,1352.2,53z"/>
	<path class="st1" d="M1329.1,53c0-3.8,3.1-6.9,6.9-6.9c3.8,0,6.9,3.1,6.9,6.9c0,3.8-3.1,6.9-6.9,6.9
		C1332.2,59.9,1329.1,56.8,1329.1,53z"/>
	<path class="st1" d="M1306,53c0-3.8,3.1-6.9,6.9-6.9c3.8,0,6.9,3.1,6.9,6.9c0,3.8-3.1,6.9-6.9,6.9C1309.1,59.9,1306,56.8,1306,53z"
		/>
	<path class="st1" d="M1282.9,53c0-3.8,3.1-6.9,6.9-6.9c3.8,0,6.9,3.1,6.9,6.9c0,3.8-3.1,6.9-6.9,6.9
		C1286,59.9,1282.9,56.8,1282.9,53z"/>
	<path class="st1" d="M1271.4,76.1c0-3.8,3.1-6.9,6.9-6.9c3.8,0,6.9,3.1,6.9,6.9c0,3.8-3.1,6.9-6.9,6.9
		C1274.4,83,1271.4,79.9,1271.4,76.1z"/>
	<path class="st1" d="M1248.3,76.1c0-3.8,3.1-6.9,6.9-6.9c3.8,0,6.9,3.1,6.9,6.9c0,3.8-3.1,6.9-6.9,6.9
		C1251.3,83,1248.3,79.9,1248.3,76.1z"/>
	<path class="st1" d="M1225.2,76.1c0-3.8,3.1-6.9,6.9-6.9c3.8,0,6.9,3.1,6.9,6.9c0,3.8-3.1,6.9-6.9,6.9
		C1228.3,83,1225.2,79.9,1225.2,76.1z"/>
	<path class="st1" d="M1202.1,76.1c0-3.8,3.1-6.9,6.9-6.9c3.8,0,6.9,3.1,6.9,6.9c0,3.8-3.1,6.9-6.9,6.9
		C1205.2,83,1202.1,79.9,1202.1,76.1z"/>
	<path class="st1" d="M1271.4,29.9c0-3.8,3.1-6.9,6.9-6.9c3.8,0,6.9,3.1,6.9,6.9c0,3.8-3.1,6.9-6.9,6.9
		C1274.4,36.8,1271.4,33.7,1271.4,29.9z"/>
	<path class="st1" d="M1248.3,29.9c0-3.8,3.1-6.9,6.9-6.9c3.8,0,6.9,3.1,6.9,6.9c0,3.8-3.1,6.9-6.9,6.9
		C1251.3,36.8,1248.3,33.7,1248.3,29.9z"/>
	<path class="st1" d="M1225.2,29.9c0-3.8,3.1-6.9,6.9-6.9c3.8,0,6.9,3.1,6.9,6.9c0,3.8-3.1,6.9-6.9,6.9
		C1228.3,36.8,1225.2,33.7,1225.2,29.9z"/>
	<path class="st1" d="M1202.1,29.9c0-3.8,3.1-6.9,6.9-6.9c3.8,0,6.9,3.1,6.9,6.9c0,3.8-3.1,6.9-6.9,6.9
		C1205.2,36.8,1202.1,33.7,1202.1,29.9z"/>
	<path class="st1" d="M1259.8,6.9c0-3.8,3.1-6.9,6.9-6.9c3.8,0,6.9,3.1,6.9,6.9c0,3.8-3.1,6.9-6.9,6.9
		C1262.9,13.7,1259.8,10.6,1259.8,6.9z"/>
	<path class="st1" d="M1236.7,6.9c0-3.8,3.1-6.9,6.9-6.9c3.8,0,6.9,3.1,6.9,6.9c0,3.8-3.1,6.9-6.9,6.9
		C1239.8,13.7,1236.7,10.6,1236.7,6.9z"/>
	<path class="st1" d="M1213.6,6.9c0-3.8,3.1-6.9,6.9-6.9c3.8,0,6.9,3.1,6.9,6.9c0,3.8-3.1,6.9-6.9,6.9
		C1216.7,13.7,1213.6,10.6,1213.6,6.9z"/>
	<circle class="st1" cx="1197.4" cy="6.9" r="6.9"/>
	<path class="st1" d="M1259.8,53c0-3.8,3.1-6.9,6.9-6.9c3.8,0,6.9,3.1,6.9,6.9c0,3.8-3.1,6.9-6.9,6.9
		C1262.9,59.9,1259.8,56.8,1259.8,53z"/>
	<path class="st1" d="M1236.7,53c0-3.8,3.1-6.9,6.9-6.9c3.8,0,6.9,3.1,6.9,6.9c0,3.8-3.1,6.9-6.9,6.9
		C1239.8,59.9,1236.7,56.8,1236.7,53z"/>
	<path class="st1" d="M1213.6,53c0-3.8,3.1-6.9,6.9-6.9c3.8,0,6.9,3.1,6.9,6.9c0,3.8-3.1,6.9-6.9,6.9
		C1216.7,59.9,1213.6,56.8,1213.6,53z"/>
	<path class="st1" d="M1190.6,53c0-3.8,3.1-6.9,6.9-6.9c3.8,0,6.9,3.1,6.9,6.9c0,3.8-3.1,6.9-6.9,6.9
		C1193.6,59.9,1190.6,56.8,1190.6,53z"/>
</g>
<rect x="1587.4" y="396.8" class="st2" width="198.4" height="198.4"/>
<polygon class="st3" points="1785.8,595.3 1785.8,396.8 1587.4,396.8 "/>
<rect x="1686.6" y="496.1" class="st0" width="99.2" height="99.2"/>
<polygon class="st1" points="1785.8,396.8 1587.4,396.8 1587.4,595.3 "/>
<rect x="1389" y="0" class="st3" width="198.4" height="198.4"/>
<rect x="1488.2" y="0" class="st1" width="99.2" height="99.2"/>
<polygon class="st0" points="1587.4,99.2 1488.2,99.2 1488.2,198.4 "/>
<rect x="1190.6" y="198.4" class="st1" width="396.8" height="198.4"/>
<rect x="1190.6" y="198.4" class="st3" width="99.3" height="198.4"/>
<ellipse transform="matrix(0.9987 -5.121699e-02 5.121699e-02 0.9987 -23.4536 76.8716)" class="st3" cx="1488.2" cy="496.1" rx="99.2" ry="99.2"/>
<path class="st0" d="M1190.6,297.6c0-54.8,44.4-99.2,99.2-99.2c54.8,0,99.2,44.4,99.2,99.2c0,54.8-44.4,99.2-99.2,99.2
	C1235,396.8,1190.6,352.4,1190.6,297.6z"/>
<path class="st2" d="M1240.2,297.6c0-27.4,22.2-49.6,49.6-49.6c27.4,0,49.6,22.2,49.6,49.6c0,27.4-22.2,49.6-49.6,49.6
	C1262.4,347.2,1240.2,325,1240.2,297.6z"/>
<path class="st1" d="M1240.2,297.6c0-27.4,22.2-49.6,49.6-49.6c27.4,0,49.6,22.2,49.6,49.6H1240.2z"/>
<path class="st2" d="M1488.2,297.6c0,54.8,44.4,99.2,99.2,99.2h0V198.4c0,0,0,0,0,0C1532.6,198.4,1488.2,242.8,1488.2,297.6z"/>
<path class="st2" d="M1785.8,198.4C1785.8,88.9,1697,0,1587.5,0l-0.1,0l0,396.8l0,0C1697,396.8,1785.8,308,1785.8,198.4z"/>
<path class="st0" d="M1686.6,198.4c0-54.8-44.4-99.2-99.2-99.2l0,0l0,99.2L1686.6,198.4z"/>
<path class="st0" d="M1488.2,297.6c0,54.8,44.4,99.2,99.2,99.2l0,0l0-99.2L1488.2,297.6z"/>
<path class="st1" d="M1686.6,198.4c0,54.8-44.4,99.2-99.2,99.2l0,0l0-99.2L1686.6,198.4z"/>
<path class="st2" d="M1438.6,49.6c0,27.4,22.2,49.6,49.6,49.6h0V0c0,0,0,0,0,0C1460.8,0,1438.6,22.2,1438.6,49.6z"/>
<path class="st3" d="M1637,347.2c0-27.4-22.2-49.6-49.6-49.6h0v99.2h0C1614.8,396.9,1637,374.6,1637,347.2z"/>
<path class="st1" d="M1736.2,545.7c0-27.4-22.2-49.6-49.6-49.6h0v99.2c0,0,0,0,0,0C1714,595.3,1736.2,573.1,1736.2,545.7z"/>
<g>
	<polygon class="st3" points="1641.5,198.4 1633,198.4 1587.4,244 1587.4,252.5 	"/>
	<polygon class="st3" points="1603.1,198.4 1594.6,198.4 1587.4,205.6 1587.4,214.1 	"/>
	<polygon class="st3" points="1622.3,198.4 1613.8,198.4 1587.4,224.8 1587.4,233.3 	"/>
	<polygon class="st3" points="1660.7,198.4 1652.2,198.4 1587.4,263.3 1587.4,271.7 	"/>
	<path class="st3" d="M1678.1,238.7c1.9-4.3,3.5-8.7,4.8-13.3l-68.5,68.5c4.6-1.3,9-2.9,13.3-4.8L1678.1,238.7z"/>
	<path class="st3" d="M1685.7,211.9c0.4-3.1,0.7-6.2,0.8-9.3l-95,95c3.1-0.1,6.2-0.4,9.3-0.8L1685.7,211.9z"/>
	<polygon class="st3" points="1679.9,198.4 1671.4,198.4 1587.4,282.5 1587.4,291 	"/>
</g>
<path class="st1" d="M1389,550.5v8.5l-36.2,36.2h-8.5L1389,550.5z M1305.8,595.3h8.5l74.7-74.7v-8.5L1305.8,595.3z M1325,595.3h8.5
	l55.5-55.5v-8.5L1325,595.3z M1382.7,595.3h6.3V589L1382.7,595.3z M1363.5,595.3h8.5l17-17v-8.5L1363.5,595.3z M1286.6,595.3h8.5
	l93.9-93.9v-8.5L1286.6,595.3z M1190.6,595.3h8.5L1389,405.3v-8.5L1190.6,595.3z M1209.8,595.3h8.5L1389,424.6v-8.5L1209.8,595.3z
	 M1267.4,595.3h8.5L1389,482.2v-8.5L1267.4,595.3z M1229,595.3h8.5L1389,443.8v-8.5L1229,595.3z M1248.2,595.3h8.5L1389,463v-8.5
	L1248.2,595.3z"/>
<g>
	<path class="st2" d="M1305.8,297.6h8.5l-45.1-45.1c-1.9,0.9-3.8,1.9-5.5,3L1305.8,297.6z"/>
	<path class="st2" d="M1284.2,248.3c-2.4,0.3-4.8,0.7-7.2,1.3l48,48h8.5L1284.2,248.3z"/>
	<path class="st2" d="M1286.6,297.6h8.5l-37.6-37.6c-1.5,1.3-3,2.7-4.3,4.2L1286.6,297.6z"/>
	<path class="st2" d="M1339.1,292.5c-0.4-3.8-1.2-7.4-2.4-10.9l-30.9-30.9c-3.5-1.2-7.1-2-10.9-2.4L1339.1,292.5z"/>
	<path class="st2" d="M1267.4,297.6h8.5l-27.4-27.4c-1.1,1.7-2.2,3.5-3.1,5.4L1267.4,297.6z"/>
	<path class="st2" d="M1248.2,297.6h8.5l-14.4-14.4c-0.7,2.2-1.2,4.6-1.6,6.9L1248.2,297.6z"/>
</g>
<g>
	<polygon class="st2" points="1289.8,396.9 1289.8,403.2 1283.5,396.9 	"/>
	<polygon class="st2" points="1190.6,476.9 1190.6,468.4 1218.3,496.1 1209.8,496.1 	"/>
	<polygon class="st2" points="1190.6,496.1 1190.6,487.6 1199,496.1 1190.6,496.1 	"/>
	<polygon class="st2" points="1275.9,496.1 1267.4,496.1 1190.6,419.2 1190.6,410.7 	"/>
	<polygon class="st2" points="1190.6,457.6 1190.6,449.2 1237.5,496.1 1229,496.1 	"/>
	<polygon class="st2" points="1190.6,438.4 1190.6,429.9 1256.7,496.1 1248.2,496.1 	"/>
	<polygon class="st2" points="1272.7,396.9 1289.8,413.9 1289.8,422.4 1264.2,396.9 	"/>
	<polygon class="st2" points="1190.6,400 1190.6,396.9 1195.9,396.9 1289.8,490.7 1289.8,496.1 1286.6,496.1 	"/>
	<polygon class="st2" points="1215.1,396.9 1289.8,471.5 1289.8,480 1206.6,396.9 	"/>
	<polygon class="st2" points="1253.5,396.9 1289.8,433.1 1289.8,441.6 1245,396.9 	"/>
	<polygon class="st2" points="1234.3,396.9 1289.8,452.3 1289.8,460.8 1225.8,396.9 	"/>
</g>
<g>
	<polygon class="st2" points="1408.2,198.4 1416.7,198.4 1402.8,184.6 1398.6,188.8 	"/>
	<polygon class="st2" points="1427.4,198.4 1435.9,198.4 1412.4,175 1408.2,179.2 	"/>
	<polygon class="st2" points="1389,198.4 1397.5,198.4 1393.2,194.2 1389,198.4 	"/>
	<polygon class="st2" points="1446.6,198.4 1455.1,198.4 1422,165.4 1417.8,169.6 	"/>
	<polygon class="st2" points="1427.4,160 1465.8,198.4 1474.3,198.4 1431.6,155.8 	"/>
	<polygon class="st2" points="1475.4,112 1488.2,124.7 1488.2,116.2 1479.7,107.7 	"/>
	<polygon class="st2" points="1485,102.4 1488.2,105.5 1488.2,99.2 1488.2,99.2 	"/>
	<polygon class="st2" points="1465.8,121.6 1488.2,143.9 1488.2,135.5 1470.1,117.3 	"/>
	<polygon class="st2" points="1456.2,131.2 1488.2,163.2 1488.2,154.7 1460.5,126.9 	"/>
	<polygon class="st2" points="1437,150.4 1485,198.4 1488.2,198.4 1488.2,193.1 1441.2,146.1 	"/>
	<polygon class="st2" points="1446.6,140.8 1488.2,182.4 1488.2,173.9 1450.9,136.5 	"/>
</g>
<g>
	<path class="st1" d="M1564.3,542.2c0-3.8-3.1-6.9-6.9-6.9c-3.8,0-6.9,3.1-6.9,6.9c0,3.8,3.1,6.9,6.9,6.9
		C1561.2,549.1,1564.3,546,1564.3,542.2z"/>
	<path class="st1" d="M1499.7,572.2c3.8,0,6.9-3.1,6.9-6.9c0-3.8-3.1-6.9-6.9-6.9c-3.8,0-6.9,3.1-6.9,6.9
		C1492.9,569.1,1495.9,572.2,1499.7,572.2z"/>
	<path class="st1" d="M1499.7,466.1c-3.8,0-6.9,3.1-6.9,6.9c0,3.8,3.1,6.9,6.9,6.9c3.8,0,6.9-3.1,6.9-6.9
		C1506.6,469.2,1503.5,466.1,1499.7,466.1z"/>
	<path class="st1" d="M1518.1,542.2c0-3.8-3.1-6.9-6.9-6.9c-3.8,0-6.9,3.1-6.9,6.9c0,3.8,3.1,6.9,6.9,6.9
		C1515.1,549.1,1518.1,546,1518.1,542.2z"/>
	<path class="st1" d="M1495.1,542.2c0-3.8-3.1-6.9-6.9-6.9h0v13.7h0C1492,549.1,1495.1,546,1495.1,542.2z"/>
	<path class="st1" d="M1545.9,572.2c3.8,0,6.9-3.1,6.9-6.9c0-3.8-3.1-6.9-6.9-6.9c-3.8,0-6.9,3.1-6.9,6.9
		C1539,569.1,1542.1,572.2,1545.9,572.2z"/>
	<path class="st1" d="M1541.2,542.2c0-3.8-3.1-6.9-6.9-6.9c-3.8,0-6.9,3.1-6.9,6.9c0,3.8,3.1,6.9,6.9,6.9
		C1538.2,549.1,1541.2,546,1541.2,542.2z"/>
	<path class="st1" d="M1522.8,572.2c3.8,0,6.9-3.1,6.9-6.9c0-3.8-3.1-6.9-6.9-6.9c-3.8,0-6.9,3.1-6.9,6.9
		C1516,569.1,1519,572.2,1522.8,572.2z"/>
	<path class="st1" d="M1522.8,512.3c-3.8,0-6.9,3.1-6.9,6.9c0,3.8,3.1,6.9,6.9,6.9c3.8,0,6.9-3.1,6.9-6.9
		C1529.7,515.4,1526.6,512.3,1522.8,512.3z"/>
	<path class="st1" d="M1545.9,512.3c-3.8,0-6.9,3.1-6.9,6.9c0,3.8,3.1,6.9,6.9,6.9c3.8,0,6.9-3.1,6.9-6.9
		C1552.8,515.4,1549.7,512.3,1545.9,512.3z"/>
	<path class="st1" d="M1545.9,466.1c-3.8,0-6.9,3.1-6.9,6.9c0,3.8,3.1,6.9,6.9,6.9c3.8,0,6.9-3.1,6.9-6.9
		C1552.8,469.2,1549.7,466.1,1545.9,466.1z"/>
	<path class="st1" d="M1499.7,512.3c-3.8,0-6.9,3.1-6.9,6.9c0,3.8,3.1,6.9,6.9,6.9c3.8,0,6.9-3.1,6.9-6.9
		C1506.6,515.4,1503.5,512.3,1499.7,512.3z"/>
	<path class="st1" d="M1527.5,496.1c0,3.8,3.1,6.9,6.9,6.9c3.8,0,6.9-3.1,6.9-6.9c0-3.8-3.1-6.9-6.9-6.9
		C1530.6,489.2,1527.5,492.3,1527.5,496.1z"/>
	<path class="st1" d="M1564.3,496.1c0-3.8-3.1-6.9-6.9-6.9c-3.8,0-6.9,3.1-6.9,6.9c0,3.8,3.1,6.9,6.9,6.9
		C1561.2,502.9,1564.3,499.9,1564.3,496.1z"/>
	<path class="st1" d="M1504.4,496.1c0,3.8,3.1,6.9,6.9,6.9c3.8,0,6.9-3.1,6.9-6.9c0-3.8-3.1-6.9-6.9-6.9
		C1507.5,489.2,1504.4,492.3,1504.4,496.1z"/>
	<path class="st1" d="M1575.9,519.2c0-3.8-3.1-6.9-6.9-6.9c-3.8,0-6.9,3.1-6.9,6.9c0,3.8,3.1,6.9,6.9,6.9
		C1572.8,526,1575.9,522.9,1575.9,519.2z"/>
	<path class="st1" d="M1522.8,466.1c-3.8,0-6.9,3.1-6.9,6.9c0,3.8,3.1,6.9,6.9,6.9c3.8,0,6.9-3.1,6.9-6.9
		C1529.7,469.2,1526.6,466.1,1522.8,466.1z"/>
	<path class="st1" d="M1488.2,489.2v13.7h0c3.8,0,6.9-3.1,6.9-6.9C1495.1,492.3,1492,489.2,1488.2,489.2L1488.2,489.2z"/>
	<path class="st1" d="M1573.7,449.9c0,3.3,2.4,6.1,5.6,6.7c-1.4-3.3-3.1-6.6-4.9-9.7C1573.9,447.8,1573.7,448.8,1573.7,449.9z"/>
	<path class="st1" d="M1573.7,542.2c0,1.1,0.3,2.1,0.7,3c1.8-3.1,3.4-6.4,4.9-9.7C1576.1,536.1,1573.7,538.9,1573.7,542.2z"/>
	<path class="st1" d="M1580.5,489.2c-3.8,0-6.9,3.1-6.9,6.9c0,3.8,3.1,6.9,6.9,6.9c3.8,0,6.9-3.1,6.9-6.9
		C1587.4,492.3,1584.3,489.2,1580.5,489.2z"/>
	<path class="st1" d="M1534.4,581.6c-3.3,0-6.1,2.4-6.7,5.6c3.3-1.4,6.6-3.1,9.7-4.9C1536.5,581.8,1535.4,581.6,1534.4,581.6z"/>
	<path class="st1" d="M1518.1,588.4c0-3.8-3.1-6.9-6.9-6.9c-3.8,0-6.9,3.1-6.9,6.9c0,2,0.9,3.9,2.3,5.1c3.7-0.7,7.4-1.6,11-2.7
		C1518,590.1,1518.1,589.3,1518.1,588.4z"/>
	<path class="st1" d="M1575.9,473c0-3.8-3.1-6.9-6.9-6.9c-3.8,0-6.9,3.1-6.9,6.9c0,3.8,3.1,6.9,6.9,6.9
		C1572.8,479.8,1575.9,476.8,1575.9,473z"/>
	<path class="st1" d="M1504.4,403.7c0,3.8,3.1,6.9,6.9,6.9c3.8,0,6.9-3.1,6.9-6.9c0-0.8-0.2-1.7-0.4-2.4c-3.6-1.1-7.2-2-11-2.7
		C1505.3,399.8,1504.4,401.7,1504.4,403.7z"/>
	<path class="st1" d="M1534.4,410.6c1.1,0,2.1-0.3,3-0.7c-3.1-1.8-6.4-3.4-9.7-4.9C1528.2,408.2,1531,410.6,1534.4,410.6z"/>
	<path class="st1" d="M1488.2,410.6L1488.2,410.6c3.8,0,6.9-3.1,6.9-6.9c0-3.8-3.1-6.9-6.9-6.9h0V410.6z"/>
	<path class="st1" d="M1545.9,419.9c-3.8,0-6.9,3.1-6.9,6.9c0,3.8,3.1,6.9,6.9,6.9c3.8,0,6.9-3.1,6.9-6.9
		C1552.8,423,1549.7,419.9,1545.9,419.9z"/>
	<path class="st1" d="M1527.5,449.9c0,3.8,3.1,6.9,6.9,6.9c3.8,0,6.9-3.1,6.9-6.9c0-3.8-3.1-6.9-6.9-6.9
		C1530.6,443,1527.5,446.1,1527.5,449.9z"/>
	<path class="st1" d="M1522.8,419.9c-3.8,0-6.9,3.1-6.9,6.9c0,3.8,3.1,6.9,6.9,6.9c3.8,0,6.9-3.1,6.9-6.9
		C1529.7,423,1526.6,419.9,1522.8,419.9z"/>
	<path class="st1" d="M1550.6,449.9c0,3.8,3.1,6.9,6.9,6.9c3.8,0,6.9-3.1,6.9-6.9c0-3.8-3.1-6.9-6.9-6.9
		C1553.7,443,1550.6,446.1,1550.6,449.9z"/>
	<path class="st1" d="M1499.7,419.9c-3.8,0-6.9,3.1-6.9,6.9c0,3.8,3.1,6.9,6.9,6.9c3.8,0,6.9-3.1,6.9-6.9
		C1506.6,423,1503.5,419.9,1499.7,419.9z"/>
	<path class="st1" d="M1504.4,449.9c0,3.8,3.1,6.9,6.9,6.9c3.8,0,6.9-3.1,6.9-6.9c0-3.8-3.1-6.9-6.9-6.9
		C1507.5,443,1504.4,446.1,1504.4,449.9z"/>
	<path class="st1" d="M1488.2,443v13.7h0c3.8,0,6.9-3.1,6.9-6.9C1495.1,446.1,1492,443,1488.2,443L1488.2,443z"/>
	<path class="st1" d="M1495.1,588.4c0-3.8-3.1-6.9-6.9-6.9h0v13.7c0,0,0.1,0,0.1,0C1492,595.2,1495.1,592.2,1495.1,588.4z"/>
</g>
<rect x="1389" y="297.6" class="st2" width="99.2" height="99.2"/>
<path class="st3" d="M1389,297.6c0,54.8,44.4,99.2,99.2,99.2l0,0l0-99.2L1389,297.6z"/>
<path class="st3" d="M1686.6,198.4c0,54.8,44.4,99.2,99.2,99.2l0,0l0-99.2L1686.6,198.4z"/>
</svg>
